<svg width="107" height="83" viewBox="0 0 107 83" fill="none" xmlns="http://www.w3.org/2000/svg">
<path d="M17.55 82.35C16.95 82.35 16.35 82.3 15.75 82.2C15.15 82.2 14.5 82.15 13.8 82.05C12 81.75 10.35 80.9 8.85 79.5C7.45 78.1 6.5 76.55 6 74.85C5.9 74.25 5.85 73.65 5.85 73.05C5.85 72.45 5.8 71.8 5.7 71.1L5.55 69.9C5.75 69.1 6.05 68.5 6.45 68.1C6.25 67.8 6.15 67.45 6.15 67.05C6.15 66.55 6.25 66.05 6.45 65.55C6.75 64.95 6.9 64.4 6.9 63.9C7.7 63 8.35 62.05 8.85 61.05C9.45 60.05 9.7 58.95 9.6 57.75L10.05 57.45C8.95 57.45 7.65 57.3 6.15 57C4.65 56.7 3.3 56.15 2.1 55.35C0.900003 54.55 0.200003 53.45 3.03611e-06 52.05C3.03611e-06 51.05 0.500003 50.2 1.5 49.5C2.4 48.8 3.5 48.25 4.8 47.85C6.1 47.35 7.1 47.1 7.8 47.1C8.7 46.8 9.75 46.65 10.95 46.65L11.1 47.55H10.95C9.95 47.95 8.75 48.5 7.35 49.2C5.95 49.9 4.85 50.6 4.05 51.3C3.25 51.9 3.05 52.3 3.45 52.5C3.95 53 5.4 53.25 7.8 53.25L8.85 53.1L13.65 51.75C14.15 51.55 14.75 51 15.45 50.1C16.25 49.1 16.8 48.4 17.1 48C17.8 47.2 18.55 46.45 19.35 45.75C20.25 44.95 21.2 44.6 22.2 44.7C22.2 44.9 22.2 45.15 22.2 45.45C22.3 45.65 22.2 45.8 21.9 45.9C21.5 46.4 20.8 47.2 19.8 48.3C18.9 49.4 18.3 50.25 18 50.85L39.9 45.15C41.1 44.85 42.35 44.65 43.65 44.55C44.95 44.35 46.2 44.05 47.4 43.65C49.3 43.05 51.15 42.6 52.95 42.3C54.85 41.9 56.7 41.35 58.5 40.65C59.3 40.35 60.05 39.5 60.75 38.1C61.55 36.7 62.3 35.65 63 34.95C64.2 33.75 65.25 32.45 66.15 31.05C67.15 29.55 68.15 28.15 69.15 26.85C70.05 25.65 71.05 24.4 72.15 23.1C73.25 21.7 74.3 20.35 75.3 19.05C75.7 18.65 76.3 17.9 77.1 16.8C77.9 15.7 78.65 14.6 79.35 13.5C80.15 12.3 80.6 11.45 80.7 10.95L80.85 10.65C80.85 10.35 80.95 10.1 81.15 9.9L83.4 7.05C84.1 7.65 84.45 8.2 84.45 8.7C84.45 9.1 84.15 9.7 83.55 10.5C83.15 10.9 82.8 11.45 82.5 12.15C82.2 12.85 81.9 13.5 81.6 14.1C80.9 15.3 80.2 16.5 79.5 17.7C78.8 18.8 78.05 19.95 77.25 21.15C76.15 22.75 75.05 24.45 73.95 26.25C72.85 27.95 71.6 29.55 70.2 31.05C70.1 31.15 70 31.3 69.9 31.5C69.8 31.7 69.65 31.9 69.45 32.1C69.35 32.3 68.95 32.9 68.25 33.9C67.65 34.8 67 35.8 66.3 36.9C65.6 38 65 38.9 64.5 39.6C67.7 39.2 70.9 38.7 74.1 38.1C74.6 35 75.5 31.8 76.8 28.5C78.2 25.2 79.7 22.1 81.3 19.2C83 16.3 84.45 13.95 85.65 12.15C85.75 12.05 85.8 11.85 85.8 11.55V10.65C85.8 9.75 86.35 8.6 87.45 7.2C88.55 5.7 89.75 4.3 91.05 3C92.35 1.6 93.35 0.600001 94.05 2.86102e-06C94.85 0.299999 96.1 0.749999 97.8 1.35C99.6 1.85 100.65 2.5 100.95 3.3L101.85 5.7C101.35 6.1 100.9 6.45 100.5 6.75C100.1 6.95 99.75 7.3 99.45 7.8L98.85 9L97.95 10.35L96.3 12.6C94.9 14.4 94.1 15.55 93.9 16.05C93.8 16.25 93.3 16.9 92.4 18C91.5 19 90.65 19.95 89.85 20.85C89.15 21.65 88.95 21.9 89.25 21.6L89.4 21.45C89 22.55 88.45 23.6 87.75 24.6C87.15 25.5 86.55 26.5 85.95 27.6C85.35 28.4 84.8 29.3 84.3 30.3C83.9 31.2 83.55 32.35 83.25 33.75L82.8 35.7C83.9 35.7 85 35.65 86.1 35.55C87.2 35.45 88.3 35.4 89.4 35.4C92.6 35.4 95.7 36 98.7 37.2C101.8 38.4 104.25 40.5 106.05 43.5C106.45 44 106.6 44.6 106.5 45.3C106.5 46 106.5 46.65 106.5 47.25C106.5 48.65 105.85 49.95 104.55 51.15C103.25 52.35 101.8 53.45 100.2 54.45C98.6 55.35 97.3 56.1 96.3 56.7V56.25H96V55.35C96.9 54.75 97.9 53.75 99 52.35C100.1 50.95 101.05 49.55 101.85 48.15C102.65 46.65 103.05 45.45 103.05 44.55C103.05 43.05 102.1 42 100.2 41.4C98.4 40.7 96.4 40.3 94.2 40.2C92 40.1 90.35 40.05 89.25 40.05C88.35 40.05 87.2 40.1 85.8 40.2C84.4 40.2 83.3 40.35 82.5 40.65C81.7 40.85 81 41.85 80.4 43.65C79.9 45.35 79.5 47.2 79.2 49.2C79 51.2 78.8 52.7 78.6 53.7C78.5 54.7 78.35 55.45 78.15 55.95C78.25 56.25 78.3 56.55 78.3 56.85C78.4 57.15 78.45 57.45 78.45 57.75C78.55 58.75 78.6 59.8 78.6 60.9C78.6 61.9 78.65 62.95 78.75 64.05C78.85 65.45 79.1 67.2 79.5 69.3C79.9 71.4 80.6 73.25 81.6 74.85C82.7 76.35 84.3 77.15 86.4 77.25C87.7 77.25 88.95 76.85 90.15 76.05C91.35 75.15 92.15 74.25 92.55 73.35C92.75 73.05 92.95 72.95 93.15 73.05C93.45 73.05 93.65 73.15 93.75 73.35C93.75 73.45 93.75 73.55 93.75 73.65C93.85 73.65 93.9 73.7 93.9 73.8C93.9 73.9 93.85 74.1 93.75 74.4C93.75 74.6 93.7 74.85 93.6 75.15C93.3 76.25 92.35 77.15 90.75 77.85C89.25 78.55 87.95 78.9 86.85 78.9C81.95 78.9 78.25 77.5 75.75 74.7C73.25 71.8 71.65 68.6 70.95 65.1C70.65 63.8 70.45 62.55 70.35 61.35C70.25 60.15 70.2 59.05 70.2 58.05C70.2 56.65 70.25 55.4 70.35 54.3C70.55 53.1 70.75 52 70.95 51C71.35 49.2 71.75 47.5 72.15 45.9C72.65 44.3 73.05 42.7 73.35 41.1C72.75 41.2 71.6 41.55 69.9 42.15C68.3 42.65 66.65 43.25 64.95 43.95C63.35 44.65 62.15 45.3 61.35 45.9C59.65 47.3 58.15 49 56.85 51C55.55 53 54.2 54.9 52.8 56.7C52.5 57.1 52.05 57.7 51.45 58.5C50.85 59.2 50.25 59.95 49.65 60.75C48.95 61.55 48.3 62.3 47.7 63C47.1 63.7 46.6 64.2 46.2 64.5C46 64.7 45.75 64.9 45.45 65.1C45.15 65.3 44.9 65.5 44.7 65.7C44.1 66.4 43.55 67.1 43.05 67.8C42.65 68.4 42.2 69.05 41.7 69.75L40.35 70.8C39.25 71.7 38.15 72.6 37.05 73.5C35.95 74.4 34.8 75.25 33.6 76.05C31.1 77.95 28.55 79.45 25.95 80.55C23.35 81.75 20.55 82.35 17.55 82.35ZM15.9 79.65C16.5 79.65 17.4 79.35 18.6 78.75C19.8 78.25 21 77.65 22.2 76.95C23.5 76.25 24.4 75.75 24.9 75.45C28.2 73.15 31.25 70.65 34.05 67.95C36.85 65.15 39.55 62.35 42.15 59.55C43.25 58.35 44.4 57.2 45.6 56.1C46.8 55 47.9 53.8 48.9 52.5C49.3 52 49.7 51.45 50.1 50.85C50.5 50.25 50.9 49.7 51.3 49.2C51.5 49 51.7 48.8 51.9 48.6C52.1 48.4 52.3 48.2 52.5 48L53.85 46.95C54.55 46.45 55.1 45.9 55.5 45.3C54.7 45.4 53.25 45.75 51.15 46.35C49.05 46.95 46.6 47.65 43.8 48.45C41.1 49.15 38.35 49.9 35.55 50.7C32.85 51.5 30.45 52.25 28.35 52.95C26.25 53.65 24.85 54.2 24.15 54.6C22.75 55.5 21.1 56.3 19.2 57C18.3 57.4 17.4 57.85 16.5 58.35C15.7 58.75 15 59.15 14.4 59.55C13.5 60.15 12.75 61.25 12.15 62.85C11.65 64.45 11.25 66.2 10.95 68.1C10.75 70 10.65 71.65 10.65 73.05C10.65 74.95 11 76.5 11.7 77.7C12.4 79 13.8 79.65 15.9 79.65Z" fill="white"/>
</svg>
