<svg width="153" height="153" viewBox="0 0 153 153" fill="none" xmlns="http://www.w3.org/2000/svg">
<rect x="39.3704" width="120" height="120" rx="60" transform="rotate(19.1527 39.3704 0)" fill="#0062B5"/>
<path fill-rule="evenodd" clip-rule="evenodd" d="M86.0377 47.9659C93.1985 50.4531 97.8395 57.0587 95.1339 64.7597C92.8699 71.2394 86.1377 72.7913 83.2848 74.5788C79.003 77.2785 75.8535 80.9513 73.3953 87.6826C71.5298 92.7915 69.6401 98.4618 68.9821 100.443L67.4009 99.8938C68.0264 97.9991 69.8796 92.6834 71.6187 87.2526C73.8017 80.4281 73.7236 75.4449 72.0385 70.6729C70.925 67.5078 66.5992 62.1153 68.8286 55.6236C71.4019 48.1467 78.7442 45.7485 85.7177 47.8693L86.0377 47.9659ZM61.9849 61.2017C68.244 62.6139 74.7496 74.6445 70.3858 86.9805C70.2487 87.5064 69.4503 89.8429 68.5509 92.4364L64.9176 99.0251C66.4439 94.4066 65.205 89.5464 62.7237 86.3663C60.6992 83.7695 57.5056 81.3188 51.827 77.7333C46.5134 74.3856 46.9428 68.1325 50.1735 64.4414C53.6488 60.484 57.6988 60.0951 61.9849 61.2017ZM74.4771 88.4015C78.6999 76.0167 91.2552 70.6064 97.0476 73.3793C101.097 75.1678 104.03 77.9818 104.31 83.2436C104.555 88.1418 101.008 93.3122 94.7706 92.6481C88.0873 91.9402 84.0672 91.8854 80.8621 92.666C76.9476 93.6247 73.1451 96.734 71.4748 101.302L72.537 93.8208C73.4383 91.228 74.2595 88.8994 74.4771 88.4015ZM47.0859 74.6115C47.2447 76.0671 48.8193 77.7126 50.4965 78.7899C55.927 82.2632 59.2169 84.6371 61.3703 87.2598C63.7197 90.1309 64.8584 94.2949 63.6513 98.1676L62.283 98.1038C62.6819 94.7601 58.9639 91.6822 56.0729 91.2939C54.3988 91.0638 50.9183 90.5519 48.3706 89.5575C44.1944 87.943 42.6834 83.2357 43.1489 80.86C43.5529 78.8066 45.0006 75.5567 47.0859 74.6115ZM100.418 93.1342C101.476 95.1711 100.598 98.6189 99.6415 100.48C98.5282 102.631 94.4307 105.391 90.1602 104.071C87.5461 103.273 84.48 101.511 83.0304 100.657C80.5316 99.1729 75.694 99.2794 73.9315 102.149L72.8275 101.355C74.2787 97.5666 77.753 95.0047 81.3675 94.2051C84.695 93.486 88.7517 93.6636 95.1607 94.3022C97.1482 94.4978 99.4013 94.1816 100.418 93.1342Z" fill="white"/>
</svg>
