<svg width="160" height="160" viewBox="0 0 160 160" fill="none" xmlns="http://www.w3.org/2000/svg">
<rect y="50.2648" width="120" height="120" rx="60" transform="rotate(-24.7635 0 50.2648)" fill="#00529C"/>
<path fill-rule="evenodd" clip-rule="evenodd" d="M85.8497 43.3788L48.0029 60.8371C43.409 62.9563 41.4611 68.5246 43.6526 73.2753L43.6944 73.366L61.096 111.09C63.2659 115.794 68.6854 117.932 73.2526 115.91L111.207 98.4022C115.802 96.2826 117.751 90.7137 115.561 85.9654L98.1352 48.1429C95.9438 43.3922 90.4447 41.2591 85.8497 43.3788ZM75.8466 109.368L73.7921 110.343C71.2928 111.496 68.3113 110.359 67.1321 107.803L66.9523 107.444L50.8428 72.5214L49.9884 70.6349C48.9407 68.118 49.8847 65.2673 52.3248 64.1417L56.5223 62.2054C60.3257 60.451 64.9501 62.3649 66.7665 66.3025C67.6642 68.2486 67.7231 70.3645 67.0909 72.2141L61.4389 88.1183L76.2332 93.8001C78.1485 94.5485 79.7469 95.9571 80.6408 97.8948C82.5866 102.113 80.4393 107.249 75.8466 109.368ZM106.689 95.0986L87.9708 103.723C87.9708 103.723 87.9586 98.006 86.6115 95.0856C84.9691 91.5253 82.3204 88.8882 79.5021 87.6354L70.0644 84.0047L73.4563 74.1807C74.5497 71.4392 74.3318 67.5693 72.6118 63.8407C71.2498 60.8881 69.2337 58.6455 67.0545 57.347L71.5892 55.2552C75.3938 53.5002 80.0182 55.4141 81.8346 59.3517C82.7323 61.2978 82.7924 63.4131 82.1602 65.2628L76.6601 80.9579L108.833 93.3407C108.344 94.0988 107.562 94.6957 106.689 95.0986ZM108.026 85.9819L84.9733 77.1171L88.8977 66.0454C89.533 63.4341 89.1649 60.1099 87.6796 56.8899C86.3087 53.9181 84.2516 51.6178 82.0601 50.3235L85.4399 48.8861C87.9392 47.7332 90.9223 48.8737 92.1009 51.4287L108.026 85.9819Z" fill="white"/>
</svg>
