<svg width="547" height="105" viewBox="0 0 547 105" fill="none" xmlns="http://www.w3.org/2000/svg">
<path d="M-7.15256e-07 24.224V0.384001H4.352V20.384H14.56V24.224H-7.15256e-07ZM22.303 24.608C21.087 24.608 20.031 24.4053 19.135 24C18.239 23.5947 17.5457 23.0187 17.055 22.272C16.5643 21.504 16.319 20.6187 16.319 19.616C16.319 18.656 16.5323 17.8027 16.959 17.056C17.3857 16.288 18.047 15.648 18.943 15.136C19.839 14.624 20.9697 14.2613 22.335 14.048L28.031 13.12V16.32L23.135 17.152C22.303 17.3013 21.6843 17.568 21.279 17.952C20.8737 18.336 20.671 18.8373 20.671 19.456C20.671 20.0533 20.895 20.5333 21.343 20.896C21.8123 21.2373 22.3883 21.408 23.071 21.408C23.9457 21.408 24.7137 21.2267 25.375 20.864C26.0577 20.48 26.5803 19.9573 26.943 19.296C27.327 18.6347 27.519 17.9093 27.519 17.12V12.64C27.519 11.8933 27.2203 11.2747 26.623 10.784C26.047 10.272 25.279 10.016 24.319 10.016C23.423 10.016 22.623 10.2613 21.919 10.752C21.2363 11.2213 20.735 11.8507 20.415 12.64L16.991 10.976C17.3323 10.0587 17.8657 9.26934 18.591 8.608C19.3377 7.92533 20.2123 7.392 21.215 7.008C22.2177 6.624 23.3057 6.432 24.479 6.432C25.9083 6.432 27.167 6.69867 28.255 7.232C29.343 7.744 30.1857 8.46934 30.783 9.408C31.4017 10.3253 31.711 11.4027 31.711 12.64V24.224H27.743V21.248L28.639 21.184C28.191 21.9307 27.6577 22.56 27.039 23.072C26.4203 23.5627 25.7163 23.9467 24.927 24.224C24.1377 24.48 23.263 24.608 22.303 24.608ZM35.5855 24.224V6.816H39.5215V10.24L39.2015 9.632C39.6068 8.58667 40.2682 7.79734 41.1855 7.264C42.1242 6.70933 43.2122 6.432 44.4495 6.432C45.7295 6.432 46.8602 6.70933 47.8415 7.264C48.8442 7.81867 49.6228 8.59734 50.1775 9.6C50.7322 10.5813 51.0095 11.7227 51.0095 13.024V24.224H46.8175V14.016C46.8175 13.248 46.6682 12.5867 46.3695 12.032C46.0708 11.4773 45.6548 11.0507 45.1215 10.752C44.6095 10.432 44.0015 10.272 43.2975 10.272C42.6148 10.272 42.0068 10.432 41.4735 10.752C40.9402 11.0507 40.5242 11.4773 40.2255 12.032C39.9268 12.5867 39.7775 13.248 39.7775 14.016V24.224H35.5855ZM63.0022 31.264C61.7009 31.264 60.4956 31.0507 59.3862 30.624C58.2769 30.1973 57.3169 29.6 56.5062 28.832C55.7169 28.0853 55.1409 27.2 54.7782 26.176L58.6822 24.704C58.9382 25.5147 59.4396 26.1653 60.1862 26.656C60.9542 27.168 61.8929 27.424 63.0022 27.424C63.8556 27.424 64.6022 27.264 65.2422 26.944C65.9036 26.624 66.4156 26.1547 66.7782 25.536C67.1409 24.9387 67.3222 24.2133 67.3222 23.36V19.392L68.1222 20.352C67.5249 21.3973 66.7249 22.1867 65.7222 22.72C64.7196 23.2533 63.5782 23.52 62.2982 23.52C60.6769 23.52 59.2262 23.1467 57.9462 22.4C56.6662 21.6533 55.6636 20.6293 54.9382 19.328C54.2129 18.0267 53.8502 16.5653 53.8502 14.944C53.8502 13.3013 54.2129 11.84 54.9382 10.56C55.6636 9.28 56.6556 8.27734 57.9142 7.552C59.1729 6.80533 60.6022 6.432 62.2022 6.432C63.5036 6.432 64.6449 6.70933 65.6262 7.264C66.6289 7.79734 67.4609 8.576 68.1222 9.6L67.5462 10.656V6.816H71.5142V23.36C71.5142 24.8747 71.1409 26.2293 70.3943 27.424C69.6689 28.6187 68.6662 29.5573 67.3862 30.24C66.1276 30.9227 64.6662 31.264 63.0022 31.264ZM62.8102 19.648C63.7062 19.648 64.4849 19.456 65.1462 19.072C65.8289 18.6667 66.3623 18.112 66.7463 17.408C67.1302 16.704 67.3222 15.8933 67.3222 14.976C67.3222 14.08 67.1196 13.28 66.7142 12.576C66.3302 11.8507 65.7969 11.2853 65.1143 10.88C64.4529 10.4747 63.6849 10.272 62.8102 10.272C61.9356 10.272 61.1462 10.4747 60.4422 10.88C59.7382 11.2853 59.1836 11.8507 58.7782 12.576C58.3942 13.28 58.2022 14.08 58.2022 14.976C58.2022 15.872 58.3942 16.672 58.7782 17.376C59.1836 18.08 59.7276 18.6347 60.4102 19.04C61.1142 19.4453 61.9142 19.648 62.8102 19.648ZM75.4292 24.224V1.90735e-06H79.6212V15.872L78.0212 15.392L86.2133 6.816H91.4293L84.9972 13.824L91.5572 24.224H86.7572L81.0612 15.2L83.5573 14.688L78.3092 20.32L79.6212 17.76V24.224H75.4292ZM99.178 24.608C97.962 24.608 96.906 24.4053 96.01 24C95.114 23.5947 94.4207 23.0187 93.93 22.272C93.4393 21.504 93.194 20.6187 93.194 19.616C93.194 18.656 93.4073 17.8027 93.834 17.056C94.2607 16.288 94.922 15.648 95.818 15.136C96.714 14.624 97.8447 14.2613 99.21 14.048L104.906 13.12V16.32L100.01 17.152C99.178 17.3013 98.5593 17.568 98.154 17.952C97.7487 18.336 97.546 18.8373 97.546 19.456C97.546 20.0533 97.77 20.5333 98.218 20.896C98.6873 21.2373 99.2633 21.408 99.946 21.408C100.821 21.408 101.589 21.2267 102.25 20.864C102.933 20.48 103.455 19.9573 103.818 19.296C104.202 18.6347 104.394 17.9093 104.394 17.12V12.64C104.394 11.8933 104.095 11.2747 103.498 10.784C102.922 10.272 102.154 10.016 101.194 10.016C100.298 10.016 99.498 10.2613 98.794 10.752C98.1113 11.2213 97.61 11.8507 97.29 12.64L93.866 10.976C94.2073 10.0587 94.7407 9.26934 95.466 8.608C96.2127 7.92533 97.0873 7.392 98.09 7.008C99.0927 6.624 100.181 6.432 101.354 6.432C102.783 6.432 104.042 6.69867 105.13 7.232C106.218 7.744 107.061 8.46934 107.658 9.408C108.277 10.3253 108.586 11.4027 108.586 12.64V24.224H104.618V21.248L105.514 21.184C105.066 21.9307 104.533 22.56 103.914 23.072C103.295 23.5627 102.591 23.9467 101.802 24.224C101.013 24.48 100.138 24.608 99.178 24.608ZM112.46 24.224V1.90735e-06H116.652V10.24L116.076 9.632C116.482 8.58667 117.143 7.79734 118.06 7.264C118.999 6.70933 120.087 6.432 121.325 6.432C122.605 6.432 123.735 6.70933 124.717 7.264C125.719 7.81867 126.498 8.59734 127.052 9.6C127.607 10.5813 127.885 11.7227 127.885 13.024V24.224H123.693V14.016C123.693 13.248 123.543 12.5867 123.245 12.032C122.946 11.4773 122.53 11.0507 121.997 10.752C121.484 10.432 120.876 10.272 120.172 10.272C119.49 10.272 118.882 10.432 118.348 10.752C117.815 11.0507 117.399 11.4773 117.1 12.032C116.802 12.5867 116.652 13.248 116.652 14.016V24.224H112.46ZM148.669 24.608C146.962 24.608 145.383 24.2987 143.933 23.68C142.503 23.0613 141.245 22.1973 140.157 21.088C139.09 19.9787 138.258 18.6773 137.661 17.184C137.063 15.6907 136.765 14.0587 136.765 12.288C136.765 10.5173 137.053 8.88534 137.629 7.392C138.226 5.87734 139.058 4.576 140.125 3.488C141.213 2.37867 142.482 1.52533 143.933 0.928001C145.383 0.309335 146.962 1.90735e-06 148.669 1.90735e-06C150.375 1.90735e-06 151.901 0.288002 153.245 0.864002C154.61 1.44 155.762 2.208 156.701 3.168C157.639 4.10667 158.311 5.14134 158.717 6.272L154.813 8.096C154.365 6.90134 153.607 5.92 152.541 5.152C151.474 4.36267 150.183 3.968 148.669 3.968C147.175 3.968 145.853 4.32 144.701 5.024C143.57 5.728 142.685 6.69867 142.045 7.936C141.426 9.17334 141.117 10.624 141.117 12.288C141.117 13.952 141.426 15.4133 142.045 16.672C142.685 17.9093 143.57 18.88 144.701 19.584C145.853 20.288 147.175 20.64 148.669 20.64C150.183 20.64 151.474 20.256 152.541 19.488C153.607 18.6987 154.365 17.7067 154.813 16.512L158.717 18.336C158.311 19.4667 157.639 20.512 156.701 21.472C155.762 22.4107 154.61 23.168 153.245 23.744C151.901 24.32 150.375 24.608 148.669 24.608ZM169.841 24.608C168.049 24.608 166.481 24.2027 165.137 23.392C163.793 22.5813 162.748 21.4827 162.001 20.096C161.255 18.7093 160.881 17.1733 160.881 15.488C160.881 13.7387 161.255 12.192 162.001 10.848C162.769 9.48267 163.804 8.40534 165.105 7.616C166.428 6.82667 167.9 6.432 169.521 6.432C170.887 6.432 172.082 6.656 173.106 7.104C174.151 7.552 175.036 8.17067 175.761 8.96C176.487 9.74934 177.042 10.656 177.426 11.68C177.809 12.6827 178.001 13.7707 178.001 14.944C178.001 15.2427 177.98 15.552 177.938 15.872C177.916 16.192 177.863 16.4693 177.778 16.704H164.337V13.504H175.41L173.425 15.008C173.617 14.0267 173.564 13.152 173.266 12.384C172.988 11.616 172.519 11.008 171.858 10.56C171.218 10.112 170.439 9.888 169.521 9.888C168.647 9.888 167.868 10.112 167.185 10.56C166.503 10.9867 165.98 11.6267 165.617 12.48C165.276 13.312 165.148 14.3253 165.233 15.52C165.148 16.5867 165.287 17.536 165.649 18.368C166.033 19.1787 166.588 19.808 167.313 20.256C168.06 20.704 168.913 20.928 169.873 20.928C170.833 20.928 171.644 20.7253 172.306 20.32C172.988 19.9147 173.521 19.3707 173.905 18.688L177.298 20.352C176.956 21.184 176.423 21.92 175.698 22.56C174.972 23.2 174.108 23.7013 173.106 24.064C172.124 24.4267 171.036 24.608 169.841 24.608ZM181.179 24.224V6.816H185.115V10.688L184.795 10.112C185.201 8.81067 185.83 7.904 186.683 7.392C187.558 6.88 188.603 6.624 189.819 6.624H190.843V10.336H189.339C188.145 10.336 187.185 10.7093 186.459 11.456C185.734 12.1813 185.371 13.2053 185.371 14.528V24.224H181.179ZM201.244 24.608C199.559 24.608 198.055 24.2133 196.732 23.424C195.409 22.6133 194.364 21.5147 193.596 20.128C192.828 18.7413 192.444 17.2053 192.444 15.52C192.444 13.8133 192.828 12.2773 193.596 10.912C194.364 9.54667 195.409 8.45867 196.732 7.648C198.076 6.83733 199.569 6.432 201.212 6.432C202.535 6.432 203.708 6.69867 204.732 7.232C205.777 7.744 206.599 8.46934 207.196 9.408L206.556 10.272V1.90735e-06H210.748V24.224H206.78V20.864L207.228 21.696C206.631 22.6347 205.799 23.36 204.732 23.872C203.665 24.3627 202.503 24.608 201.244 24.608ZM201.692 20.768C202.652 20.768 203.495 20.544 204.22 20.096C204.945 19.648 205.511 19.0293 205.916 18.24C206.343 17.4507 206.556 16.544 206.556 15.52C206.556 14.5173 206.343 13.6213 205.916 12.832C205.511 12.0213 204.945 11.392 204.22 10.944C203.495 10.496 202.652 10.272 201.692 10.272C200.753 10.272 199.911 10.5067 199.164 10.976C198.417 11.424 197.831 12.0427 197.404 12.832C196.999 13.6 196.796 14.496 196.796 15.52C196.796 16.544 196.999 17.4507 197.404 18.24C197.831 19.0293 198.417 19.648 199.164 20.096C199.911 20.544 200.753 20.768 201.692 20.768ZM219.928 24.608C218.712 24.608 217.656 24.4053 216.76 24C215.864 23.5947 215.171 23.0187 214.68 22.272C214.189 21.504 213.944 20.6187 213.944 19.616C213.944 18.656 214.157 17.8027 214.584 17.056C215.011 16.288 215.672 15.648 216.568 15.136C217.464 14.624 218.595 14.2613 219.96 14.048L225.656 13.12V16.32L220.76 17.152C219.928 17.3013 219.309 17.568 218.904 17.952C218.499 18.336 218.296 18.8373 218.296 19.456C218.296 20.0533 218.52 20.5333 218.968 20.896C219.437 21.2373 220.013 21.408 220.696 21.408C221.571 21.408 222.339 21.2267 223 20.864C223.683 20.48 224.205 19.9573 224.568 19.296C224.952 18.6347 225.144 17.9093 225.144 17.12V12.64C225.144 11.8933 224.845 11.2747 224.248 10.784C223.672 10.272 222.904 10.016 221.944 10.016C221.048 10.016 220.248 10.2613 219.544 10.752C218.861 11.2213 218.36 11.8507 218.04 12.64L214.616 10.976C214.957 10.0587 215.491 9.26934 216.216 8.608C216.963 7.92533 217.837 7.392 218.84 7.008C219.843 6.624 220.931 6.432 222.104 6.432C223.533 6.432 224.792 6.69867 225.88 7.232C226.968 7.744 227.811 8.46934 228.408 9.408C229.027 10.3253 229.336 11.4027 229.336 12.64V24.224H225.368V21.248L226.264 21.184C225.816 21.9307 225.283 22.56 224.664 23.072C224.045 23.5627 223.341 23.9467 222.552 24.224C221.763 24.48 220.888 24.608 219.928 24.608ZM239.834 24.608C237.978 24.608 236.357 24.1707 234.97 23.296C233.605 22.4 232.666 21.1947 232.154 19.68L235.29 18.176C235.738 19.1573 236.357 19.9253 237.146 20.48C237.957 21.0347 238.853 21.312 239.834 21.312C240.602 21.312 241.21 21.1413 241.658 20.8C242.106 20.4587 242.33 20.0107 242.33 19.456C242.33 19.1147 242.234 18.8373 242.042 18.624C241.872 18.3893 241.626 18.1973 241.306 18.048C241.008 17.8773 240.677 17.7387 240.314 17.632L237.466 16.832C235.994 16.4053 234.874 15.7547 234.106 14.88C233.36 14.0053 232.986 12.9707 232.986 11.776C232.986 10.7093 233.253 9.78134 233.786 8.992C234.341 8.18134 235.098 7.552 236.058 7.104C237.04 6.656 238.16 6.432 239.418 6.432C241.061 6.432 242.512 6.82667 243.771 7.616C245.029 8.40534 245.925 9.51467 246.458 10.944L243.259 12.448C242.96 11.6587 242.458 11.0293 241.754 10.56C241.05 10.0907 240.261 9.856 239.386 9.856C238.682 9.856 238.128 10.016 237.722 10.336C237.317 10.656 237.114 11.072 237.114 11.584C237.114 11.904 237.2 12.1813 237.37 12.416C237.541 12.6507 237.776 12.8427 238.074 12.992C238.394 13.1413 238.757 13.28 239.162 13.408L241.946 14.24C243.376 14.6667 244.474 15.3067 245.242 16.16C246.032 17.0133 246.427 18.0587 246.427 19.296C246.427 20.3413 246.149 21.2693 245.594 22.08C245.04 22.8693 244.272 23.488 243.29 23.936C242.309 24.384 241.157 24.608 239.834 24.608ZM255.687 24.224V0.384001H259.847L268.776 12.512H266.792L275.528 0.384001H279.688V24.224H275.304V5.344L277 5.76L267.943 17.824H267.431L258.599 5.76L260.039 5.344V24.224H255.687ZM292.154 24.608C290.362 24.608 288.794 24.2027 287.45 23.392C286.106 22.5813 285.061 21.4827 284.314 20.096C283.567 18.7093 283.194 17.1733 283.194 15.488C283.194 13.7387 283.567 12.192 284.314 10.848C285.082 9.48267 286.117 8.40534 287.418 7.616C288.741 6.82667 290.213 6.432 291.834 6.432C293.199 6.432 294.394 6.656 295.418 7.104C296.463 7.552 297.349 8.17067 298.074 8.96C298.799 9.74934 299.354 10.656 299.738 11.68C300.122 12.6827 300.314 13.7707 300.314 14.944C300.314 15.2427 300.293 15.552 300.25 15.872C300.229 16.192 300.175 16.4693 300.09 16.704H286.65V13.504H297.722L295.738 15.008C295.93 14.0267 295.877 13.152 295.578 12.384C295.301 11.616 294.831 11.008 294.17 10.56C293.53 10.112 292.751 9.888 291.834 9.888C290.959 9.888 290.181 10.112 289.498 10.56C288.815 10.9867 288.293 11.6267 287.93 12.48C287.589 13.312 287.461 14.3253 287.546 15.52C287.461 16.5867 287.599 17.536 287.962 18.368C288.346 19.1787 288.901 19.808 289.626 20.256C290.373 20.704 291.226 20.928 292.186 20.928C293.146 20.928 293.957 20.7253 294.618 20.32C295.301 19.9147 295.834 19.3707 296.218 18.688L299.61 20.352C299.269 21.184 298.735 21.92 298.01 22.56C297.285 23.2 296.421 23.7013 295.418 24.064C294.437 24.4267 293.349 24.608 292.154 24.608ZM303.492 24.224V6.816H307.428V10.24L307.108 9.632C307.513 8.58667 308.174 7.79734 309.092 7.264C310.03 6.70933 311.118 6.432 312.356 6.432C313.636 6.432 314.766 6.70933 315.748 7.264C316.75 7.81867 317.529 8.59734 318.084 9.6C318.638 10.5813 318.916 11.7227 318.916 13.024V24.224H314.724V14.016C314.724 13.248 314.574 12.5867 314.276 12.032C313.977 11.4773 313.561 11.0507 313.028 10.752C312.516 10.432 311.908 10.272 311.204 10.272C310.521 10.272 309.913 10.432 309.38 10.752C308.846 11.0507 308.43 11.4773 308.132 12.032C307.833 12.5867 307.684 13.248 307.684 14.016V24.224H303.492ZM328.668 24.608C327.324 24.608 326.151 24.3093 325.148 23.712C324.167 23.1147 323.41 22.2827 322.876 21.216C322.364 20.1493 322.108 18.9013 322.108 17.472V6.816H326.3V17.12C326.3 17.8453 326.439 18.4853 326.716 19.04C327.015 19.5733 327.431 20 327.964 20.32C328.519 20.6187 329.138 20.768 329.82 20.768C330.503 20.768 331.111 20.6187 331.644 20.32C332.178 20 332.594 19.5627 332.892 19.008C333.191 18.4533 333.34 17.792 333.34 17.024V6.816H337.532V24.224H333.564V20.8L333.917 21.408C333.511 22.4747 332.839 23.2747 331.9 23.808C330.983 24.3413 329.906 24.608 328.668 24.608ZM339.029 31.296C338.752 31.296 338.464 31.2853 338.165 31.264C337.867 31.2427 337.621 31.2107 337.429 31.168V27.52C337.813 27.584 338.197 27.616 338.581 27.616C339.477 27.616 340.171 27.4027 340.661 26.976C341.173 26.5707 341.429 25.9413 341.429 25.088V6.816H345.621V25.088C345.621 26.4107 345.355 27.5307 344.821 28.448C344.288 29.3867 343.52 30.0907 342.517 30.56C341.536 31.0507 340.373 31.296 339.029 31.296ZM341.429 4.864V0.384001H345.621V4.864H341.429ZM355.7 24.608C354.356 24.608 353.182 24.3093 352.18 23.712C351.198 23.1147 350.441 22.2827 349.908 21.216C349.396 20.1493 349.14 18.9013 349.14 17.472V6.816H353.332V17.12C353.332 17.8453 353.47 18.4853 353.748 19.04C354.046 19.5733 354.462 20 354.996 20.32C355.55 20.6187 356.169 20.768 356.852 20.768C357.534 20.768 358.142 20.6187 358.676 20.32C359.209 20 359.625 19.5627 359.924 19.008C360.222 18.4533 360.372 17.792 360.372 17.024V6.816H364.564V24.224H360.596V20.8L360.948 21.408C360.542 22.4747 359.87 23.2747 358.932 23.808C358.014 24.3413 356.937 24.608 355.7 24.608ZM374.5 24.224V0.384001H378.852V12.8L377.668 12.384L387.812 0.384001H393.284L383.78 11.648L384.036 8.576L393.572 24.224H388.452L382.052 13.728L378.852 17.536V24.224H374.5ZM403.498 24.608C401.706 24.608 400.138 24.2027 398.794 23.392C397.45 22.5813 396.404 21.4827 395.658 20.096C394.911 18.7093 394.538 17.1733 394.538 15.488C394.538 13.7387 394.911 12.192 395.658 10.848C396.426 9.48267 397.46 8.40534 398.762 7.616C400.084 6.82667 401.556 6.432 403.178 6.432C404.543 6.432 405.738 6.656 406.762 7.104C407.807 7.552 408.692 8.17067 409.418 8.96C410.143 9.74934 410.698 10.656 411.082 11.68C411.466 12.6827 411.658 13.7707 411.658 14.944C411.658 15.2427 411.636 15.552 411.594 15.872C411.572 16.192 411.519 16.4693 411.434 16.704H397.994V13.504H409.066L407.082 15.008C407.274 14.0267 407.22 13.152 406.922 12.384C406.644 11.616 406.175 11.008 405.514 10.56C404.874 10.112 404.095 9.888 403.178 9.888C402.303 9.888 401.524 10.112 400.842 10.56C400.159 10.9867 399.636 11.6267 399.274 12.48C398.932 13.312 398.804 14.3253 398.89 15.52C398.804 16.5867 398.943 17.536 399.306 18.368C399.69 19.1787 400.244 19.808 400.97 20.256C401.716 20.704 402.57 20.928 403.53 20.928C404.49 20.928 405.3 20.7253 405.962 20.32C406.644 19.9147 407.178 19.3707 407.562 18.688L410.954 20.352C410.612 21.184 410.079 21.92 409.354 22.56C408.628 23.2 407.764 23.7013 406.762 24.064C405.78 24.4267 404.692 24.608 403.498 24.608ZM424.339 24.608C423.081 24.608 421.918 24.3627 420.851 23.872C419.806 23.36 418.974 22.6347 418.355 21.696L418.771 20.864V24.224H414.835V1.90735e-06H419.027V10.272L418.387 9.408C418.985 8.46934 419.795 7.744 420.819 7.232C421.843 6.69867 423.027 6.432 424.372 6.432C426.014 6.432 427.497 6.83733 428.819 7.648C430.142 8.45867 431.187 9.54667 431.955 10.912C432.745 12.2773 433.139 13.8133 433.139 15.52C433.139 17.2053 432.755 18.7413 431.987 20.128C431.22 21.5147 430.174 22.6133 428.851 23.424C427.529 24.2133 426.025 24.608 424.339 24.608ZM423.859 20.768C424.819 20.768 425.673 20.544 426.419 20.096C427.166 19.648 427.742 19.0293 428.148 18.24C428.574 17.4507 428.787 16.544 428.787 15.52C428.787 14.496 428.574 13.6 428.148 12.832C427.742 12.0427 427.166 11.424 426.419 10.976C425.673 10.5067 424.819 10.272 423.859 10.272C422.942 10.272 422.11 10.496 421.363 10.944C420.638 11.392 420.062 12.0213 419.635 12.832C419.23 13.6213 419.027 14.5173 419.027 15.52C419.027 16.544 419.23 17.4507 419.635 18.24C420.062 19.0293 420.638 19.648 421.363 20.096C422.11 20.544 422.942 20.768 423.859 20.768ZM444.591 24.608C442.799 24.608 441.231 24.2027 439.887 23.392C438.543 22.5813 437.498 21.4827 436.751 20.096C436.005 18.7093 435.631 17.1733 435.631 15.488C435.631 13.7387 436.005 12.192 436.751 10.848C437.519 9.48267 438.554 8.40534 439.855 7.616C441.178 6.82667 442.65 6.432 444.271 6.432C445.637 6.432 446.832 6.656 447.856 7.104C448.901 7.552 449.786 8.17067 450.511 8.96C451.237 9.74934 451.792 10.656 452.176 11.68C452.559 12.6827 452.751 13.7707 452.751 14.944C452.751 15.2427 452.73 15.552 452.688 15.872C452.666 16.192 452.613 16.4693 452.528 16.704H439.087V13.504H450.16L448.175 15.008C448.367 14.0267 448.314 13.152 448.016 12.384C447.738 11.616 447.269 11.008 446.608 10.56C445.968 10.112 445.189 9.888 444.271 9.888C443.397 9.888 442.618 10.112 441.935 10.56C441.253 10.9867 440.73 11.6267 440.367 12.48C440.026 13.312 439.898 14.3253 439.983 15.52C439.898 16.5867 440.037 17.536 440.399 18.368C440.783 19.1787 441.338 19.808 442.063 20.256C442.81 20.704 443.663 20.928 444.623 20.928C445.583 20.928 446.394 20.7253 447.056 20.32C447.738 19.9147 448.271 19.3707 448.655 18.688L452.048 20.352C451.706 21.184 451.173 21.92 450.448 22.56C449.722 23.2 448.858 23.7013 447.856 24.064C446.874 24.4267 445.786 24.608 444.591 24.608ZM465.433 24.608C464.175 24.608 463.012 24.3627 461.945 23.872C460.9 23.36 460.068 22.6347 459.449 21.696L459.865 20.864V24.224H455.929V1.90735e-06H460.121V10.272L459.481 9.408C460.079 8.46934 460.889 7.744 461.913 7.232C462.937 6.69867 464.121 6.432 465.465 6.432C467.108 6.432 468.591 6.83733 469.913 7.648C471.236 8.45867 472.281 9.54667 473.049 10.912C473.839 12.2773 474.233 13.8133 474.233 15.52C474.233 17.2053 473.849 18.7413 473.081 20.128C472.313 21.5147 471.268 22.6133 469.945 23.424C468.623 24.2133 467.119 24.608 465.433 24.608ZM464.953 20.768C465.913 20.768 466.767 20.544 467.513 20.096C468.26 19.648 468.836 19.0293 469.241 18.24C469.668 17.4507 469.881 16.544 469.881 15.52C469.881 14.496 469.668 13.6 469.241 12.832C468.836 12.0427 468.26 11.424 467.513 10.976C466.767 10.5067 465.913 10.272 464.953 10.272C464.036 10.272 463.204 10.496 462.457 10.944C461.732 11.392 461.156 12.0213 460.729 12.832C460.324 13.6213 460.121 14.5173 460.121 15.52C460.121 16.544 460.324 17.4507 460.729 18.24C461.156 19.0293 461.732 19.648 462.457 20.096C463.204 20.544 464.036 20.768 464.953 20.768ZM482.709 24.608C481.493 24.608 480.437 24.4053 479.541 24C478.645 23.5947 477.952 23.0187 477.461 22.272C476.971 21.504 476.725 20.6187 476.725 19.616C476.725 18.656 476.939 17.8027 477.365 17.056C477.792 16.288 478.453 15.648 479.349 15.136C480.245 14.624 481.376 14.2613 482.741 14.048L488.437 13.12V16.32L483.541 17.152C482.709 17.3013 482.091 17.568 481.685 17.952C481.28 18.336 481.077 18.8373 481.077 19.456C481.077 20.0533 481.301 20.5333 481.749 20.896C482.219 21.2373 482.795 21.408 483.477 21.408C484.352 21.408 485.12 21.2267 485.781 20.864C486.464 20.48 486.987 19.9573 487.349 19.296C487.733 18.6347 487.925 17.9093 487.925 17.12V12.64C487.925 11.8933 487.627 11.2747 487.029 10.784C486.453 10.272 485.685 10.016 484.725 10.016C483.829 10.016 483.029 10.2613 482.325 10.752C481.643 11.2213 481.141 11.8507 480.821 12.64L477.397 10.976C477.739 10.0587 478.272 9.26934 478.997 8.608C479.744 7.92533 480.619 7.392 481.621 7.008C482.624 6.624 483.712 6.432 484.885 6.432C486.315 6.432 487.573 6.69867 488.661 7.232C489.749 7.744 490.592 8.46934 491.189 9.408C491.808 10.3253 492.117 11.4027 492.117 12.64V24.224H488.149V21.248L489.045 21.184C488.597 21.9307 488.064 22.56 487.445 23.072C486.827 23.5627 486.123 23.9467 485.333 24.224C484.544 24.48 483.669 24.608 482.709 24.608ZM502.616 24.608C500.76 24.608 499.138 24.1707 497.752 23.296C496.386 22.4 495.448 21.1947 494.936 19.68L498.072 18.176C498.52 19.1573 499.138 19.9253 499.928 20.48C500.738 21.0347 501.634 21.312 502.616 21.312C503.384 21.312 503.992 21.1413 504.44 20.8C504.888 20.4587 505.112 20.0107 505.112 19.456C505.112 19.1147 505.016 18.8373 504.824 18.624C504.653 18.3893 504.408 18.1973 504.088 18.048C503.789 17.8773 503.458 17.7387 503.096 17.632L500.248 16.832C498.776 16.4053 497.656 15.7547 496.888 14.88C496.141 14.0053 495.768 12.9707 495.768 11.776C495.768 10.7093 496.034 9.78134 496.568 8.992C497.122 8.18134 497.88 7.552 498.84 7.104C499.821 6.656 500.941 6.432 502.2 6.432C503.842 6.432 505.293 6.82667 506.552 7.616C507.81 8.40534 508.706 9.51467 509.24 10.944L506.04 12.448C505.741 11.6587 505.24 11.0293 504.536 10.56C503.832 10.0907 503.042 9.856 502.168 9.856C501.464 9.856 500.909 10.016 500.504 10.336C500.098 10.656 499.896 11.072 499.896 11.584C499.896 11.904 499.981 12.1813 500.152 12.416C500.322 12.6507 500.557 12.8427 500.856 12.992C501.176 13.1413 501.538 13.28 501.944 13.408L504.728 14.24C506.157 14.6667 507.256 15.3067 508.024 16.16C508.813 17.0133 509.208 18.0587 509.208 19.296C509.208 20.3413 508.93 21.2693 508.376 22.08C507.821 22.8693 507.053 23.488 506.072 23.936C505.09 24.384 503.938 24.608 502.616 24.608ZM517.709 24.608C516.493 24.608 515.437 24.4053 514.541 24C513.645 23.5947 512.952 23.0187 512.461 22.272C511.971 21.504 511.725 20.6187 511.725 19.616C511.725 18.656 511.939 17.8027 512.365 17.056C512.792 16.288 513.453 15.648 514.349 15.136C515.245 14.624 516.376 14.2613 517.741 14.048L523.437 13.12V16.32L518.541 17.152C517.709 17.3013 517.091 17.568 516.685 17.952C516.28 18.336 516.077 18.8373 516.077 19.456C516.077 20.0533 516.301 20.5333 516.749 20.896C517.219 21.2373 517.795 21.408 518.477 21.408C519.352 21.408 520.12 21.2267 520.781 20.864C521.464 20.48 521.987 19.9573 522.349 19.296C522.733 18.6347 522.925 17.9093 522.925 17.12V12.64C522.925 11.8933 522.627 11.2747 522.029 10.784C521.453 10.272 520.685 10.016 519.725 10.016C518.829 10.016 518.029 10.2613 517.325 10.752C516.643 11.2213 516.141 11.8507 515.821 12.64L512.397 10.976C512.739 10.0587 513.272 9.26934 513.997 8.608C514.744 7.92533 515.619 7.392 516.621 7.008C517.624 6.624 518.712 6.432 519.885 6.432C521.315 6.432 522.573 6.69867 523.661 7.232C524.749 7.744 525.592 8.46934 526.189 9.408C526.808 10.3253 527.117 11.4027 527.117 12.64V24.224H523.149V21.248L524.045 21.184C523.597 21.9307 523.064 22.56 522.445 23.072C521.827 23.5627 521.123 23.9467 520.333 24.224C519.544 24.48 518.669 24.608 517.709 24.608ZM530.992 24.224V6.816H534.928V10.24L534.608 9.632C535.013 8.58667 535.674 7.79734 536.592 7.264C537.53 6.70933 538.618 6.432 539.856 6.432C541.136 6.432 542.266 6.70933 543.248 7.264C544.25 7.81867 545.029 8.59734 545.584 9.6C546.138 10.5813 546.416 11.7227 546.416 13.024V24.224H542.224V14.016C542.224 13.248 542.074 12.5867 541.776 12.032C541.477 11.4773 541.061 11.0507 540.528 10.752C540.016 10.432 539.408 10.272 538.704 10.272C538.021 10.272 537.413 10.432 536.88 10.752C536.346 11.0507 535.93 11.4773 535.632 12.032C535.333 12.5867 535.184 13.248 535.184 14.016V24.224H530.992ZM-7.15256e-07 64.224V40.384H15.904V44.224H4.352V50.816H14.464V54.656H4.352V64.224H-7.15256e-07ZM18.398 64.224V46.816H22.59V64.224H18.398ZM18.398 44.864V40.384H22.59V44.864H18.398ZM26.4605 64.224V46.816H30.3965V50.24L30.0765 49.632C30.4818 48.5867 31.1432 47.7973 32.0605 47.264C32.9992 46.7093 34.0872 46.432 35.3245 46.432C36.6045 46.432 37.7352 46.7093 38.7165 47.264C39.7192 47.8187 40.4978 48.5973 41.0525 49.6C41.6072 50.5813 41.8845 51.7227 41.8845 53.024V64.224H37.6925V54.016C37.6925 53.248 37.5432 52.5867 37.2445 52.032C36.9458 51.4773 36.5298 51.0507 35.9965 50.752C35.4845 50.432 34.8765 50.272 34.1725 50.272C33.4898 50.272 32.8818 50.432 32.3485 50.752C31.8152 51.0507 31.3992 51.4773 31.1005 52.032C30.8018 52.5867 30.6525 53.248 30.6525 54.016V64.224H26.4605ZM50.7092 64.608C49.4932 64.608 48.4372 64.4053 47.5412 64C46.6452 63.5947 45.9519 63.0187 45.4612 62.272C44.9706 61.504 44.7252 60.6187 44.7252 59.616C44.7252 58.656 44.9386 57.8027 45.3652 57.056C45.7919 56.288 46.4532 55.648 47.3492 55.136C48.2452 54.624 49.3759 54.2613 50.7412 54.048L56.4373 53.12V56.32L51.5412 57.152C50.7092 57.3013 50.0906 57.568 49.6852 57.952C49.2799 58.336 49.0772 58.8373 49.0772 59.456C49.0772 60.0533 49.3012 60.5333 49.7492 60.896C50.2186 61.2373 50.7946 61.408 51.4772 61.408C52.3519 61.408 53.1199 61.2267 53.7812 60.864C54.4639 60.48 54.9866 59.9573 55.3492 59.296C55.7332 58.6347 55.9253 57.9093 55.9253 57.12V52.64C55.9253 51.8933 55.6266 51.2747 55.0293 50.784C54.4532 50.272 53.6852 50.016 52.7252 50.016C51.8292 50.016 51.0292 50.2613 50.3252 50.752C49.6426 51.2213 49.1412 51.8507 48.8212 52.64L45.3972 50.976C45.7386 50.0587 46.2719 49.2693 46.9972 48.608C47.7439 47.9253 48.6186 47.392 49.6212 47.008C50.6239 46.624 51.7119 46.432 52.8852 46.432C54.3146 46.432 55.5733 46.6987 56.6613 47.232C57.7493 47.744 58.5919 48.4693 59.1892 49.408C59.8079 50.3253 60.1173 51.4027 60.1173 52.64V64.224H56.1493V61.248L57.0452 61.184C56.5972 61.9307 56.0639 62.56 55.4452 63.072C54.8266 63.5627 54.1226 63.9467 53.3333 64.224C52.5439 64.48 51.6692 64.608 50.7092 64.608ZM63.9917 64.224V46.816H67.9277V50.24L67.6077 49.632C68.0131 48.5867 68.6744 47.7973 69.5917 47.264C70.5304 46.7093 71.6184 46.432 72.8558 46.432C74.1358 46.432 75.2664 46.7093 76.2478 47.264C77.2504 47.8187 78.0291 48.5973 78.5837 49.6C79.1384 50.5813 79.4158 51.7227 79.4158 53.024V64.224H75.2238V54.016C75.2238 53.248 75.0744 52.5867 74.7758 52.032C74.4771 51.4773 74.0611 51.0507 73.5278 50.752C73.0157 50.432 72.4077 50.272 71.7037 50.272C71.0211 50.272 70.4131 50.432 69.8797 50.752C69.3464 51.0507 68.9304 51.4773 68.6317 52.032C68.3331 52.5867 68.1837 53.248 68.1837 54.016V64.224H63.9917ZM89.5845 64.608C87.7285 64.608 86.1072 64.1707 84.7205 63.296C83.3552 62.4 82.4165 61.1947 81.9045 59.68L85.0405 58.176C85.4885 59.1573 86.1072 59.9253 86.8965 60.48C87.7072 61.0347 88.6032 61.312 89.5845 61.312C90.3525 61.312 90.9605 61.1413 91.4085 60.8C91.8565 60.4587 92.0805 60.0107 92.0805 59.456C92.0805 59.1147 91.9845 58.8373 91.7925 58.624C91.6218 58.3893 91.3765 58.1973 91.0565 58.048C90.7578 57.8773 90.4272 57.7387 90.0645 57.632L87.2165 56.832C85.7445 56.4053 84.6245 55.7547 83.8565 54.88C83.1098 54.0053 82.7365 52.9707 82.7365 51.776C82.7365 50.7093 83.0032 49.7813 83.5365 48.992C84.0912 48.1813 84.8485 47.552 85.8085 47.104C86.7898 46.656 87.9098 46.432 89.1685 46.432C90.8112 46.432 92.2618 46.8267 93.5205 47.616C94.7792 48.4053 95.6752 49.5147 96.2085 50.944L93.0085 52.448C92.7098 51.6587 92.2085 51.0293 91.5045 50.56C90.8005 50.0907 90.0112 49.856 89.1365 49.856C88.4325 49.856 87.8778 50.016 87.4725 50.336C87.0672 50.656 86.8645 51.072 86.8645 51.584C86.8645 51.904 86.9498 52.1813 87.1205 52.416C87.2912 52.6507 87.5258 52.8427 87.8245 52.992C88.1445 53.1413 88.5072 53.28 88.9125 53.408L91.6965 54.24C93.1258 54.6667 94.2245 55.3067 94.9925 56.16C95.7818 57.0133 96.1765 58.0587 96.1765 59.296C96.1765 60.3413 95.8992 61.2693 95.3445 62.08C94.7898 62.8693 94.0218 63.488 93.0405 63.936C92.0592 64.384 90.9072 64.608 89.5845 64.608ZM99.398 64.224V46.816H103.59V64.224H99.398ZM99.398 44.864V40.384H103.59V44.864H99.398ZM112.74 64.608C111.524 64.608 110.468 64.4053 109.572 64C108.676 63.5947 107.983 63.0187 107.492 62.272C107.002 61.504 106.756 60.6187 106.756 59.616C106.756 58.656 106.97 57.8027 107.396 57.056C107.823 56.288 108.484 55.648 109.38 55.136C110.276 54.624 111.407 54.2613 112.772 54.048L118.469 53.12V56.32L113.572 57.152C112.74 57.3013 112.122 57.568 111.716 57.952C111.311 58.336 111.108 58.8373 111.108 59.456C111.108 60.0533 111.332 60.5333 111.78 60.896C112.25 61.2373 112.826 61.408 113.508 61.408C114.383 61.408 115.151 61.2267 115.812 60.864C116.495 60.48 117.018 59.9573 117.38 59.296C117.764 58.6347 117.957 57.9093 117.957 57.12V52.64C117.957 51.8933 117.658 51.2747 117.061 50.784C116.484 50.272 115.716 50.016 114.756 50.016C113.86 50.016 113.06 50.2613 112.356 50.752C111.674 51.2213 111.172 51.8507 110.852 52.64L107.428 50.976C107.77 50.0587 108.303 49.2693 109.028 48.608C109.775 47.9253 110.65 47.392 111.652 47.008C112.655 46.624 113.743 46.432 114.916 46.432C116.346 46.432 117.605 46.6987 118.693 47.232C119.781 47.744 120.623 48.4693 121.22 49.408C121.839 50.3253 122.149 51.4027 122.149 52.64V64.224H118.181V61.248L119.076 61.184C118.628 61.9307 118.095 62.56 117.476 63.072C116.858 63.5627 116.154 63.9467 115.365 64.224C114.575 64.48 113.7 64.608 112.74 64.608ZM126.023 64.224V40H130.215V64.224H126.023ZM139.773 64.224V46.816H143.709V50.848L143.261 50.176C143.581 48.9173 144.221 47.9787 145.181 47.36C146.141 46.7413 147.272 46.432 148.573 46.432C150.002 46.432 151.261 46.8053 152.349 47.552C153.437 48.2987 154.141 49.28 154.461 50.496L153.277 50.592C153.81 49.2053 154.61 48.1707 155.677 47.488C156.744 46.784 157.97 46.432 159.357 46.432C160.594 46.432 161.693 46.7093 162.653 47.264C163.634 47.8187 164.402 48.5973 164.957 49.6C165.512 50.5813 165.789 51.7227 165.789 53.024V64.224H161.597V54.016C161.597 53.248 161.458 52.5867 161.181 52.032C160.904 51.4773 160.52 51.0507 160.029 50.752C159.538 50.432 158.941 50.272 158.237 50.272C157.576 50.272 156.989 50.432 156.477 50.752C155.965 51.0507 155.57 51.4773 155.293 52.032C155.016 52.5867 154.877 53.248 154.877 54.016V64.224H150.685V54.016C150.685 53.248 150.546 52.5867 150.269 52.032C149.992 51.4773 149.597 51.0507 149.085 50.752C148.594 50.432 148.008 50.272 147.325 50.272C146.664 50.272 146.077 50.432 145.565 50.752C145.053 51.0507 144.658 51.4773 144.381 52.032C144.104 52.5867 143.965 53.248 143.965 54.016V64.224H139.773ZM177.591 64.608C175.799 64.608 174.231 64.2027 172.887 63.392C171.543 62.5813 170.498 61.4827 169.751 60.096C169.005 58.7093 168.631 57.1733 168.631 55.488C168.631 53.7387 169.005 52.192 169.751 50.848C170.519 49.4827 171.554 48.4053 172.855 47.616C174.178 46.8267 175.65 46.432 177.271 46.432C178.637 46.432 179.832 46.656 180.856 47.104C181.901 47.552 182.786 48.1707 183.511 48.96C184.237 49.7493 184.792 50.656 185.176 51.68C185.559 52.6827 185.751 53.7707 185.751 54.944C185.751 55.2427 185.73 55.552 185.688 55.872C185.666 56.192 185.613 56.4693 185.528 56.704H172.087V53.504H183.16L181.175 55.008C181.367 54.0267 181.314 53.152 181.016 52.384C180.738 51.616 180.269 51.008 179.608 50.56C178.968 50.112 178.189 49.888 177.271 49.888C176.397 49.888 175.618 50.112 174.935 50.56C174.253 50.9867 173.73 51.6267 173.367 52.48C173.026 53.312 172.898 54.3253 172.983 55.52C172.898 56.5867 173.037 57.536 173.399 58.368C173.783 59.1787 174.338 59.808 175.063 60.256C175.81 60.704 176.663 60.928 177.623 60.928C178.583 60.928 179.394 60.7253 180.056 60.32C180.738 59.9147 181.271 59.3707 181.655 58.688L185.048 60.352C184.706 61.184 184.173 61.92 183.448 62.56C182.722 63.2 181.858 63.7013 180.856 64.064C179.874 64.4267 178.786 64.608 177.591 64.608ZM188.929 64.224V40H193.121V64.224H188.929ZM202.272 64.608C201.056 64.608 200 64.4053 199.104 64C198.208 63.5947 197.514 63.0187 197.024 62.272C196.533 61.504 196.288 60.6187 196.288 59.616C196.288 58.656 196.501 57.8027 196.928 57.056C197.354 56.288 198.016 55.648 198.912 55.136C199.808 54.624 200.938 54.2613 202.304 54.048L208 53.12V56.32L203.104 57.152C202.272 57.3013 201.653 57.568 201.248 57.952C200.842 58.336 200.64 58.8373 200.64 59.456C200.64 60.0533 200.864 60.5333 201.312 60.896C201.781 61.2373 202.357 61.408 203.04 61.408C203.914 61.408 204.682 61.2267 205.344 60.864C206.026 60.48 206.549 59.9573 206.912 59.296C207.296 58.6347 207.488 57.9093 207.488 57.12V52.64C207.488 51.8933 207.189 51.2747 206.592 50.784C206.016 50.272 205.248 50.016 204.288 50.016C203.392 50.016 202.592 50.2613 201.888 50.752C201.205 51.2213 200.704 51.8507 200.384 52.64L196.96 50.976C197.301 50.0587 197.834 49.2693 198.56 48.608C199.306 47.9253 200.181 47.392 201.184 47.008C202.186 46.624 203.274 46.432 204.448 46.432C205.877 46.432 207.136 46.6987 208.224 47.232C209.312 47.744 210.154 48.4693 210.752 49.408C211.37 50.3253 211.68 51.4027 211.68 52.64V64.224H207.712V61.248L208.608 61.184C208.16 61.9307 207.626 62.56 207.008 63.072C206.389 63.5627 205.685 63.9467 204.896 64.224C204.106 64.48 203.232 64.608 202.272 64.608ZM215.554 64.224V40H219.746V64.224H215.554ZM229.825 64.608C228.481 64.608 227.307 64.3093 226.305 63.712C225.323 63.1147 224.566 62.2827 224.033 61.216C223.521 60.1493 223.265 58.9013 223.265 57.472V46.816H227.457V57.12C227.457 57.8453 227.595 58.4853 227.873 59.04C228.171 59.5733 228.587 60 229.121 60.32C229.675 60.6187 230.294 60.768 230.977 60.768C231.659 60.768 232.267 60.6187 232.801 60.32C233.334 60 233.75 59.5627 234.049 59.008C234.347 58.4533 234.497 57.792 234.497 57.024V46.816H238.689V64.224H234.721V60.8L235.073 61.408C234.667 62.4747 233.995 63.2747 233.057 63.808C232.139 64.3413 231.062 64.608 229.825 64.608ZM242.585 64.224V46.816H246.777V64.224H242.585ZM242.585 44.864V40.384H246.777V44.864H242.585ZM260.423 64.224L268.647 40.384H274.279L282.503 64.224H277.767L276.071 59.104H266.855L265.127 64.224H260.423ZM268.103 55.264H274.823L270.855 43.392H272.071L268.103 55.264ZM284.804 64.224V40H288.996V55.872L287.396 55.392L295.588 46.816H300.804L294.372 53.824L300.932 64.224H296.132L290.436 55.2L292.932 54.688L287.684 60.32L288.996 57.76V64.224H284.804ZM309.897 64.608C308.041 64.608 306.42 64.1707 305.033 63.296C303.668 62.4 302.729 61.1947 302.217 59.68L305.353 58.176C305.801 59.1573 306.42 59.9253 307.209 60.48C308.02 61.0347 308.916 61.312 309.897 61.312C310.665 61.312 311.273 61.1413 311.721 60.8C312.169 60.4587 312.393 60.0107 312.393 59.456C312.393 59.1147 312.297 58.8373 312.105 58.624C311.934 58.3893 311.689 58.1973 311.369 58.048C311.07 57.8773 310.74 57.7387 310.377 57.632L307.529 56.832C306.057 56.4053 304.937 55.7547 304.169 54.88C303.422 54.0053 303.049 52.9707 303.049 51.776C303.049 50.7093 303.316 49.7813 303.849 48.992C304.404 48.1813 305.161 47.552 306.121 47.104C307.102 46.656 308.222 46.432 309.481 46.432C311.124 46.432 312.574 46.8267 313.833 47.616C315.092 48.4053 315.988 49.5147 316.521 50.944L313.321 52.448C313.022 51.6587 312.521 51.0293 311.817 50.56C311.113 50.0907 310.324 49.856 309.449 49.856C308.745 49.856 308.19 50.016 307.785 50.336C307.38 50.656 307.177 51.072 307.177 51.584C307.177 51.904 307.262 52.1813 307.433 52.416C307.604 52.6507 307.838 52.8427 308.137 52.992C308.457 53.1413 308.82 53.28 309.225 53.408L312.009 54.24C313.438 54.6667 314.537 55.3067 315.305 56.16C316.094 57.0133 316.489 58.0587 316.489 59.296C316.489 60.3413 316.212 61.2693 315.657 62.08C315.102 62.8693 314.334 63.488 313.353 63.936C312.372 64.384 311.22 64.608 309.897 64.608ZM319.71 64.224V46.816H323.902V64.224H319.71ZM319.71 44.864V40.384H323.902V44.864H319.71ZM342.325 64.608C340.81 64.608 339.402 64.3307 338.1 63.776C336.82 63.2213 335.711 62.4533 334.772 61.472C333.855 60.4693 333.183 59.3067 332.756 57.984L336.372 56.416C336.948 57.7813 337.78 58.8587 338.868 59.648C339.956 60.416 341.183 60.8 342.549 60.8C343.316 60.8 343.978 60.6827 344.532 60.448C345.108 60.192 345.546 59.8507 345.844 59.424C346.164 58.9973 346.325 58.4853 346.325 57.888C346.325 57.184 346.111 56.608 345.684 56.16C345.279 55.6907 344.66 55.328 343.828 55.072L339.252 53.6C337.396 53.024 335.999 52.16 335.06 51.008C334.122 49.856 333.652 48.5013 333.652 46.944C333.652 45.5787 333.983 44.3733 334.644 43.328C335.327 42.2827 336.266 41.472 337.46 40.896C338.676 40.2987 340.063 40 341.62 40C343.05 40 344.362 40.256 345.556 40.768C346.751 41.2587 347.775 41.952 348.628 42.848C349.503 43.7227 350.154 44.7573 350.58 45.952L346.997 47.552C346.527 46.3573 345.823 45.44 344.884 44.8C343.946 44.1387 342.858 43.808 341.62 43.808C340.895 43.808 340.255 43.936 339.7 44.192C339.146 44.4267 338.708 44.768 338.388 45.216C338.09 45.6427 337.94 46.1547 337.94 46.752C337.94 47.4133 338.154 48 338.58 48.512C339.007 49.0027 339.658 49.3867 340.532 49.664L344.917 51.04C346.815 51.6587 348.234 52.512 349.173 53.6C350.132 54.688 350.612 56.032 350.612 57.632C350.612 58.9973 350.26 60.2027 349.556 61.248C348.852 62.2933 347.882 63.1147 346.644 63.712C345.407 64.3093 343.967 64.608 342.325 64.608ZM359.303 64.608C358.087 64.608 357.031 64.4053 356.135 64C355.239 63.5947 354.546 63.0187 354.055 62.272C353.564 61.504 353.319 60.6187 353.319 59.616C353.319 58.656 353.532 57.8027 353.959 57.056C354.386 56.288 355.047 55.648 355.943 55.136C356.839 54.624 357.97 54.2613 359.335 54.048L365.031 53.12V56.32L360.135 57.152C359.303 57.3013 358.684 57.568 358.279 57.952C357.874 58.336 357.671 58.8373 357.671 59.456C357.671 60.0533 357.895 60.5333 358.343 60.896C358.812 61.2373 359.388 61.408 360.071 61.408C360.946 61.408 361.714 61.2267 362.375 60.864C363.058 60.48 363.58 59.9573 363.943 59.296C364.327 58.6347 364.519 57.9093 364.519 57.12V52.64C364.519 51.8933 364.22 51.2747 363.623 50.784C363.047 50.272 362.279 50.016 361.319 50.016C360.423 50.016 359.623 50.2613 358.919 50.752C358.236 51.2213 357.735 51.8507 357.415 52.64L353.991 50.976C354.332 50.0587 354.866 49.2693 355.591 48.608C356.338 47.9253 357.212 47.392 358.215 47.008C359.218 46.624 360.306 46.432 361.479 46.432C362.908 46.432 364.167 46.6987 365.255 47.232C366.343 47.744 367.186 48.4693 367.783 49.408C368.402 50.3253 368.711 51.4027 368.711 52.64V64.224H364.743V61.248L365.639 61.184C365.191 61.9307 364.658 62.56 364.039 63.072C363.42 63.5627 362.716 63.9467 361.927 64.224C361.138 64.48 360.263 64.608 359.303 64.608ZM372.585 64.224V40H376.777V50.24L376.201 49.632C376.607 48.5867 377.268 47.7973 378.185 47.264C379.124 46.7093 380.212 46.432 381.45 46.432C382.73 46.432 383.86 46.7093 384.842 47.264C385.844 47.8187 386.623 48.5973 387.177 49.6C387.732 50.5813 388.01 51.7227 388.01 53.024V64.224H383.818V54.016C383.818 53.248 383.668 52.5867 383.37 52.032C383.071 51.4773 382.655 51.0507 382.122 50.752C381.609 50.432 381.001 50.272 380.297 50.272C379.615 50.272 379.007 50.432 378.473 50.752C377.94 51.0507 377.524 51.4773 377.225 52.032C376.927 52.5867 376.777 53.248 376.777 54.016V64.224H372.585ZM396.834 64.608C395.618 64.608 394.562 64.4053 393.666 64C392.77 63.5947 392.077 63.0187 391.586 62.272C391.096 61.504 390.85 60.6187 390.85 59.616C390.85 58.656 391.064 57.8027 391.49 57.056C391.917 56.288 392.578 55.648 393.474 55.136C394.37 54.624 395.501 54.2613 396.866 54.048L402.562 53.12V56.32L397.666 57.152C396.834 57.3013 396.216 57.568 395.81 57.952C395.405 58.336 395.202 58.8373 395.202 59.456C395.202 60.0533 395.426 60.5333 395.874 60.896C396.344 61.2373 396.92 61.408 397.602 61.408C398.477 61.408 399.245 61.2267 399.906 60.864C400.589 60.48 401.112 59.9573 401.474 59.296C401.858 58.6347 402.05 57.9093 402.05 57.12V52.64C402.05 51.8933 401.752 51.2747 401.154 50.784C400.578 50.272 399.81 50.016 398.85 50.016C397.954 50.016 397.154 50.2613 396.45 50.752C395.768 51.2213 395.266 51.8507 394.946 52.64L391.522 50.976C391.864 50.0587 392.397 49.2693 393.122 48.608C393.869 47.9253 394.744 47.392 395.746 47.008C396.749 46.624 397.837 46.432 399.01 46.432C400.44 46.432 401.698 46.6987 402.786 47.232C403.874 47.744 404.717 48.4693 405.314 49.408C405.933 50.3253 406.242 51.4027 406.242 52.64V64.224H402.274V61.248L403.17 61.184C402.722 61.9307 402.189 62.56 401.57 63.072C400.952 63.5627 400.248 63.9467 399.458 64.224C398.669 64.48 397.794 64.608 396.834 64.608ZM410.117 64.224V46.816H414.053V50.848L413.605 50.176C413.925 48.9173 414.565 47.9787 415.525 47.36C416.485 46.7413 417.615 46.432 418.917 46.432C420.346 46.432 421.605 46.8053 422.693 47.552C423.781 48.2987 424.485 49.28 424.805 50.496L423.621 50.592C424.154 49.2053 424.954 48.1707 426.021 47.488C427.087 46.784 428.314 46.432 429.701 46.432C430.938 46.432 432.037 46.7093 432.997 47.264C433.978 47.8187 434.746 48.5973 435.301 49.6C435.855 50.5813 436.133 51.7227 436.133 53.024V64.224H431.941V54.016C431.941 53.248 431.802 52.5867 431.525 52.032C431.247 51.4773 430.863 51.0507 430.373 50.752C429.882 50.432 429.285 50.272 428.581 50.272C427.919 50.272 427.333 50.432 426.821 50.752C426.309 51.0507 425.914 51.4773 425.637 52.032C425.359 52.5867 425.221 53.248 425.221 54.016V64.224H421.029V54.016C421.029 53.248 420.89 52.5867 420.613 52.032C420.335 51.4773 419.941 51.0507 419.429 50.752C418.938 50.432 418.351 50.272 417.669 50.272C417.007 50.272 416.421 50.432 415.909 50.752C415.397 51.0507 415.002 51.4773 414.725 52.032C414.447 52.5867 414.309 53.248 414.309 54.016V64.224H410.117ZM-7.15256e-07 104.224V80.384H8.864C10.4853 80.384 11.9147 80.6827 13.152 81.28C14.4107 81.856 15.392 82.7093 16.096 83.84C16.8 84.9493 17.152 86.304 17.152 87.904C17.152 89.5467 16.7573 90.944 15.968 92.096C15.2 93.248 14.1547 94.1013 12.832 94.656L18.304 104.224H13.376L7.52 93.76L10.336 95.424H4.352V104.224H-7.15256e-07ZM4.352 91.584H8.928C9.71733 91.584 10.4 91.4347 10.976 91.136C11.552 90.816 12 90.3787 12.32 89.824C12.64 89.2693 12.8 88.6293 12.8 87.904C12.8 87.1573 12.64 86.5173 12.32 85.984C12 85.4293 11.552 85.0027 10.976 84.704C10.4 84.384 9.71733 84.224 8.928 84.224H4.352V91.584ZM26.0842 104.608C24.8682 104.608 23.8122 104.405 22.9162 104C22.0202 103.595 21.3269 103.019 20.8362 102.272C20.3456 101.504 20.1002 100.619 20.1002 99.616C20.1002 98.656 20.3136 97.8027 20.7402 97.056C21.1669 96.288 21.8282 95.648 22.7242 95.136C23.6202 94.624 24.7509 94.2613 26.1162 94.048L31.8123 93.12V96.32L26.9162 97.152C26.0842 97.3013 25.4656 97.568 25.0602 97.952C24.6549 98.336 24.4522 98.8373 24.4522 99.456C24.4522 100.053 24.6762 100.533 25.1242 100.896C25.5936 101.237 26.1696 101.408 26.8522 101.408C27.7269 101.408 28.4949 101.227 29.1562 100.864C29.8389 100.48 30.3616 99.9573 30.7242 99.296C31.1082 98.6347 31.3003 97.9093 31.3003 97.12V92.64C31.3003 91.8933 31.0016 91.2747 30.4043 90.784C29.8282 90.272 29.0602 90.016 28.1002 90.016C27.2042 90.016 26.4042 90.2613 25.7002 90.752C25.0176 91.2213 24.5162 91.8507 24.1962 92.64L20.7722 90.976C21.1136 90.0587 21.6469 89.2693 22.3722 88.608C23.1189 87.9253 23.9936 87.392 24.9962 87.008C25.9989 86.624 27.0869 86.432 28.2602 86.432C29.6896 86.432 30.9483 86.6987 32.0363 87.232C33.1243 87.744 33.9669 88.4693 34.5642 89.408C35.1829 90.3253 35.4923 91.4027 35.4923 92.64V104.224H31.5243V101.248L32.4202 101.184C31.9722 101.931 31.4389 102.56 30.8202 103.072C30.2016 103.563 29.4976 103.947 28.7083 104.224C27.9189 104.48 27.0442 104.608 26.0842 104.608ZM45.9907 104.608C44.1347 104.608 42.5134 104.171 41.1267 103.296C39.7614 102.4 38.8227 101.195 38.3107 99.68L41.4467 98.176C41.8947 99.1573 42.5134 99.9253 43.3027 100.48C44.1134 101.035 45.0094 101.312 45.9907 101.312C46.7587 101.312 47.3667 101.141 47.8147 100.8C48.2627 100.459 48.4867 100.011 48.4867 99.456C48.4867 99.1147 48.3907 98.8373 48.1987 98.624C48.0281 98.3893 47.7827 98.1973 47.4627 98.048C47.1641 97.8773 46.8334 97.7387 46.4707 97.632L43.6227 96.832C42.1507 96.4053 41.0307 95.7547 40.2627 94.88C39.5161 94.0053 39.1427 92.9707 39.1427 91.776C39.1427 90.7093 39.4094 89.7813 39.9427 88.992C40.4974 88.1813 41.2547 87.552 42.2147 87.104C43.1961 86.656 44.3161 86.432 45.5747 86.432C47.2174 86.432 48.6681 86.8267 49.9268 87.616C51.1854 88.4053 52.0814 89.5147 52.6147 90.944L49.4148 92.448C49.1161 91.6587 48.6147 91.0293 47.9107 90.56C47.2067 90.0907 46.4174 89.856 45.5427 89.856C44.8387 89.856 44.2841 90.016 43.8787 90.336C43.4734 90.656 43.2707 91.072 43.2707 91.584C43.2707 91.904 43.3561 92.1813 43.5267 92.416C43.6974 92.6507 43.9321 92.8427 44.2307 92.992C44.5507 93.1413 44.9134 93.28 45.3187 93.408L48.1027 94.24C49.5321 94.6667 50.6307 95.3067 51.3987 96.16C52.1881 97.0133 52.5828 98.0587 52.5828 99.296C52.5828 100.341 52.3054 101.269 51.7507 102.08C51.1961 102.869 50.4281 103.488 49.4467 103.936C48.4654 104.384 47.3134 104.608 45.9907 104.608ZM55.8042 104.224V86.816H59.9962V104.224H55.8042ZM55.8042 84.864V80.384H59.9962V84.864H55.8042ZM72.3787 104.608C70.6721 104.608 69.1147 104.213 67.7067 103.424C66.3201 102.635 65.2107 101.557 64.3787 100.192C63.5681 98.8267 63.1627 97.2693 63.1627 95.52C63.1627 93.7707 63.5681 92.2133 64.3787 90.848C65.2107 89.4827 66.3201 88.4053 67.7067 87.616C69.0934 86.8267 70.6507 86.432 72.3787 86.432C74.0854 86.432 75.6321 86.8267 77.0188 87.616C78.4054 88.4053 79.5041 89.4827 80.3148 90.848C81.1468 92.192 81.5627 93.7493 81.5627 95.52C81.5627 97.2693 81.1468 98.8267 80.3148 100.192C79.4827 101.557 78.3734 102.635 76.9867 103.424C75.6001 104.213 74.0641 104.608 72.3787 104.608ZM72.3787 100.768C73.3174 100.768 74.1387 100.544 74.8427 100.096C75.5681 99.648 76.1334 99.0293 76.5387 98.24C76.9654 97.4293 77.1788 96.5227 77.1788 95.52C77.1788 94.496 76.9654 93.6 76.5387 92.832C76.1334 92.0427 75.5681 91.424 74.8427 90.976C74.1387 90.5067 73.3174 90.272 72.3787 90.272C71.4187 90.272 70.5761 90.5067 69.8507 90.976C69.1254 91.424 68.5494 92.0427 68.1227 92.832C67.7174 93.6 67.5147 94.496 67.5147 95.52C67.5147 96.5227 67.7174 97.4293 68.1227 98.24C68.5494 99.0293 69.1254 99.648 69.8507 100.096C70.5761 100.544 71.4187 100.768 72.3787 100.768ZM84.7417 104.224V86.816H88.6777V90.24L88.3577 89.632C88.7631 88.5867 89.4244 87.7973 90.3417 87.264C91.2804 86.7093 92.3684 86.432 93.6058 86.432C94.8858 86.432 96.0164 86.7093 96.9978 87.264C98.0004 87.8187 98.7791 88.5973 99.3337 89.6C99.8884 90.5813 100.166 91.7227 100.166 93.024V104.224H95.9738V94.016C95.9738 93.248 95.8244 92.5867 95.5258 92.032C95.2271 91.4773 94.8111 91.0507 94.2778 90.752C93.7657 90.432 93.1577 90.272 92.4537 90.272C91.7711 90.272 91.1631 90.432 90.6297 90.752C90.0964 91.0507 89.6804 91.4773 89.3817 92.032C89.0831 92.5867 88.9337 93.248 88.9337 94.016V104.224H84.7417ZM108.99 104.608C107.774 104.608 106.718 104.405 105.822 104C104.926 103.595 104.233 103.019 103.742 102.272C103.252 101.504 103.006 100.619 103.006 99.616C103.006 98.656 103.22 97.8027 103.646 97.056C104.073 96.288 104.734 95.648 105.63 95.136C106.526 94.624 107.657 94.2613 109.022 94.048L114.719 93.12V96.32L109.822 97.152C108.99 97.3013 108.372 97.568 107.966 97.952C107.561 98.336 107.358 98.8373 107.358 99.456C107.358 100.053 107.582 100.533 108.03 100.896C108.5 101.237 109.076 101.408 109.758 101.408C110.633 101.408 111.401 101.227 112.062 100.864C112.745 100.48 113.268 99.9573 113.63 99.296C114.014 98.6347 114.207 97.9093 114.207 97.12V92.64C114.207 91.8933 113.908 91.2747 113.311 90.784C112.734 90.272 111.966 90.016 111.006 90.016C110.11 90.016 109.31 90.2613 108.606 90.752C107.924 91.2213 107.422 91.8507 107.102 92.64L103.678 90.976C104.02 90.0587 104.553 89.2693 105.278 88.608C106.025 87.9253 106.9 87.392 107.902 87.008C108.905 86.624 109.993 86.432 111.166 86.432C112.596 86.432 113.855 86.6987 114.943 87.232C116.031 87.744 116.873 88.4693 117.47 89.408C118.089 90.3253 118.399 91.4027 118.399 92.64V104.224H114.431V101.248L115.326 101.184C114.878 101.931 114.345 102.56 113.726 103.072C113.108 103.563 112.404 103.947 111.615 104.224C110.825 104.48 109.95 104.608 108.99 104.608ZM122.273 104.224V80H126.465V104.224H122.273Z" fill="white"/>
</svg>
