<svg width="565" height="31" viewBox="0 0 565 31" fill="none" xmlns="http://www.w3.org/2000/svg">
<path d="M12.1601 30.76C10.2934 30.76 8.53339 30.4267 6.88005 29.76C5.25339 29.0667 3.84005 28.0933 2.64005 26.84C1.46672 25.5867 0.58672 24.1067 5.37038e-05 22.4L5.08005 20.12C5.82672 21.7467 6.85339 23.0267 8.16005 23.96C9.49339 24.8933 10.9601 25.36 12.5601 25.36C13.4134 25.36 14.1467 25.2267 14.7601 24.96C15.3734 24.6933 15.8534 24.3333 16.2001 23.88C16.5467 23.4 16.7201 22.84 16.7201 22.2C16.7201 21.5067 16.5067 20.92 16.0801 20.44C15.6534 19.9333 14.9867 19.5333 14.0801 19.24L8.24005 17.32C5.86672 16.5467 4.08005 15.4533 2.88005 14.04C1.68005 12.6 1.08005 10.88 1.08005 8.88C1.08005 7.12 1.50672 5.57333 2.36005 4.24C3.24005 2.90666 4.45339 1.86666 6.00005 1.12C7.57339 0.373331 9.37339 -2.38419e-06 11.4001 -2.38419e-06C13.1867 -2.38419e-06 14.8401 0.306664 16.3601 0.919998C17.8801 1.53333 19.1867 2.4 20.2801 3.52C21.4001 4.64 22.2401 5.98666 22.8001 7.56L17.7601 9.84C17.2001 8.45333 16.3601 7.37333 15.2401 6.6C14.1201 5.8 12.8401 5.4 11.4001 5.4C10.5734 5.4 9.84005 5.53333 9.20005 5.8C8.56005 6.06666 8.06672 6.45333 7.72005 6.96C7.37339 7.44 7.20005 8 7.20005 8.64C7.20005 9.33333 7.42672 9.94666 7.88005 10.48C8.33339 10.9867 9.01339 11.3867 9.92005 11.68L15.6401 13.52C18.0401 14.2933 19.8267 15.3733 21.0001 16.76C22.2001 18.1467 22.8001 19.84 22.8001 21.84C22.8001 23.5733 22.3467 25.12 21.4401 26.48C20.5334 27.8133 19.2801 28.8667 17.6801 29.64C16.1067 30.3867 14.2667 30.76 12.1601 30.76ZM32.5785 30.28V5.88H25.0185V0.479996H46.2185V5.88H38.7785V30.28H32.5785ZM62.9979 30.76C60.7579 30.76 58.6779 30.3733 56.7579 29.6C54.8379 28.8267 53.1579 27.7467 51.7179 26.36C50.3045 24.9467 49.1979 23.3067 48.3979 21.44C47.5979 19.5733 47.1979 17.5467 47.1979 15.36C47.1979 13.1733 47.5845 11.1467 48.3579 9.28C49.1579 7.41333 50.2645 5.78666 51.6779 4.4C53.1179 3.01333 54.7979 1.93333 56.7179 1.16C58.6379 0.386664 60.7312 -2.38419e-06 62.9979 -2.38419e-06C65.2645 -2.38419e-06 67.3579 0.386664 69.2779 1.16C71.1979 1.93333 72.8645 3.01333 74.2779 4.4C75.7179 5.78666 76.8245 7.41333 77.5979 9.28C78.3979 11.1467 78.7979 13.1733 78.7979 15.36C78.7979 17.5467 78.3979 19.5733 77.5979 21.44C76.7979 23.3067 75.6779 24.9467 74.2379 26.36C72.8245 27.7467 71.1579 28.8267 69.2379 29.6C67.3179 30.3733 65.2379 30.76 62.9979 30.76ZM62.9979 25.16C64.3579 25.16 65.6112 24.92 66.7579 24.44C67.9312 23.96 68.9579 23.2933 69.8379 22.44C70.7179 21.56 71.3979 20.52 71.8779 19.32C72.3579 18.12 72.5979 16.8 72.5979 15.36C72.5979 13.92 72.3579 12.6133 71.8779 11.44C71.3979 10.24 70.7179 9.2 69.8379 8.32C68.9579 7.44 67.9312 6.77333 66.7579 6.32C65.6112 5.84 64.3579 5.6 62.9979 5.6C61.6379 5.6 60.3712 5.84 59.1979 6.32C58.0512 6.77333 57.0379 7.44 56.1579 8.32C55.2779 9.2 54.5979 10.24 54.1179 11.44C53.6379 12.6133 53.3979 13.92 53.3979 15.36C53.3979 16.8 53.6379 18.12 54.1179 19.32C54.5979 20.52 55.2779 21.56 56.1579 22.44C57.0379 23.2933 58.0512 23.96 59.1979 24.44C60.3712 24.92 61.6379 25.16 62.9979 25.16ZM97.3551 30.76C95.2217 30.76 93.2351 30.3733 91.3951 29.6C89.5817 28.8267 87.9951 27.7467 86.6351 26.36C85.2751 24.9733 84.2084 23.3467 83.4351 21.48C82.6884 19.6133 82.3151 17.5733 82.3151 15.36C82.3151 13.1467 82.6884 11.1067 83.4351 9.24C84.1817 7.34667 85.2351 5.72 86.5951 4.36C87.9551 2.97333 89.5417 1.90666 91.3551 1.16C93.1951 0.386664 95.1951 -2.38419e-06 97.3551 -2.38419e-06C99.5151 -2.38419e-06 101.448 0.359998 103.155 1.08C104.888 1.8 106.355 2.76 107.555 3.96C108.755 5.16 109.608 6.49333 110.115 7.96L104.635 10.6C104.128 9.16 103.235 7.97333 101.955 7.04C100.702 6.08 99.1684 5.6 97.3551 5.6C95.5951 5.6 94.0484 6.01333 92.7151 6.84C91.3817 7.66666 90.3417 8.81333 89.5951 10.28C88.8751 11.72 88.5151 13.4133 88.5151 15.36C88.5151 17.3067 88.8751 19.0133 89.5951 20.48C90.3417 21.9467 91.3817 23.0933 92.7151 23.92C94.0484 24.7467 95.5951 25.16 97.3551 25.16C99.1684 25.16 100.702 24.6933 101.955 23.76C103.235 22.8 104.128 21.6 104.635 20.16L110.115 22.8C109.608 24.2667 108.755 25.6 107.555 26.8C106.355 28 104.888 28.96 103.155 29.68C101.448 30.4 99.5151 30.76 97.3551 30.76ZM114.093 30.28V0.479996H120.293V15.4L118.573 14.8L130.493 0.479996H138.253L126.453 14.72L126.813 10.32L138.493 30.28H131.253L123.973 17.68L120.293 22.12V30.28H114.093ZM148.742 30.28V0.479996H154.942V30.28H148.742ZM160.226 30.28V0.479996H164.986L180.986 21.56L178.426 22.16V0.479996H184.626V30.28H179.826L164.106 9.04L166.426 8.44V30.28H160.226ZM197.914 30.28L187.714 0.479996H194.514L202.194 24.4H200.834L208.514 0.479996H215.314L205.114 30.28H197.914ZM218.39 30.28V0.479996H238.43V5.88H224.59V12.64H237.63V18.04H224.59V24.88H238.43V30.28H218.39ZM252.785 30.76C250.918 30.76 249.158 30.4267 247.505 29.76C245.878 29.0667 244.465 28.0933 243.265 26.84C242.092 25.5867 241.212 24.1067 240.625 22.4L245.705 20.12C246.452 21.7467 247.478 23.0267 248.785 23.96C250.118 24.8933 251.585 25.36 253.185 25.36C254.038 25.36 254.772 25.2267 255.385 24.96C255.998 24.6933 256.478 24.3333 256.825 23.88C257.172 23.4 257.345 22.84 257.345 22.2C257.345 21.5067 257.132 20.92 256.705 20.44C256.278 19.9333 255.612 19.5333 254.705 19.24L248.865 17.32C246.492 16.5467 244.705 15.4533 243.505 14.04C242.305 12.6 241.705 10.88 241.705 8.88C241.705 7.12 242.132 5.57333 242.985 4.24C243.865 2.90666 245.078 1.86666 246.625 1.12C248.198 0.373331 249.998 -2.38419e-06 252.025 -2.38419e-06C253.812 -2.38419e-06 255.465 0.306664 256.985 0.919998C258.505 1.53333 259.812 2.4 260.905 3.52C262.025 4.64 262.865 5.98666 263.425 7.56L258.385 9.84C257.825 8.45333 256.985 7.37333 255.865 6.6C254.745 5.8 253.465 5.4 252.025 5.4C251.198 5.4 250.465 5.53333 249.825 5.8C249.185 6.06666 248.692 6.45333 248.345 6.96C247.998 7.44 247.825 8 247.825 8.64C247.825 9.33333 248.052 9.94666 248.505 10.48C248.958 10.9867 249.638 11.3867 250.545 11.68L256.265 13.52C258.665 14.2933 260.452 15.3733 261.625 16.76C262.825 18.1467 263.425 19.84 263.425 21.84C263.425 23.5733 262.972 25.12 262.065 26.48C261.158 27.8133 259.905 28.8667 258.305 29.64C256.732 30.3867 254.892 30.76 252.785 30.76ZM273.203 30.28V5.88H265.643V0.479996H286.843V5.88H279.403V30.28H273.203ZM303.623 30.76C301.383 30.76 299.303 30.3733 297.383 29.6C295.463 28.8267 293.783 27.7467 292.343 26.36C290.93 24.9467 289.823 23.3067 289.023 21.44C288.223 19.5733 287.823 17.5467 287.823 15.36C287.823 13.1733 288.21 11.1467 288.983 9.28C289.783 7.41333 290.89 5.78666 292.303 4.4C293.743 3.01333 295.423 1.93333 297.343 1.16C299.263 0.386664 301.356 -2.38419e-06 303.623 -2.38419e-06C305.89 -2.38419e-06 307.983 0.386664 309.903 1.16C311.823 1.93333 313.49 3.01333 314.903 4.4C316.343 5.78666 317.45 7.41333 318.223 9.28C319.023 11.1467 319.423 13.1733 319.423 15.36C319.423 17.5467 319.023 19.5733 318.223 21.44C317.423 23.3067 316.303 24.9467 314.863 26.36C313.45 27.7467 311.783 28.8267 309.863 29.6C307.943 30.3733 305.863 30.76 303.623 30.76ZM303.623 25.16C304.983 25.16 306.236 24.92 307.383 24.44C308.556 23.96 309.583 23.2933 310.463 22.44C311.343 21.56 312.023 20.52 312.503 19.32C312.983 18.12 313.223 16.8 313.223 15.36C313.223 13.92 312.983 12.6133 312.503 11.44C312.023 10.24 311.343 9.2 310.463 8.32C309.583 7.44 308.556 6.77333 307.383 6.32C306.236 5.84 304.983 5.6 303.623 5.6C302.263 5.6 300.996 5.84 299.823 6.32C298.676 6.77333 297.663 7.44 296.783 8.32C295.903 9.2 295.223 10.24 294.743 11.44C294.263 12.6133 294.023 13.92 294.023 15.36C294.023 16.8 294.263 18.12 294.743 19.32C295.223 20.52 295.903 21.56 296.783 22.44C297.663 23.2933 298.676 23.96 299.823 24.44C300.996 24.92 302.263 25.16 303.623 25.16ZM323.82 30.28V0.479996H335.22C337.273 0.479996 339.087 0.839996 340.66 1.56C342.26 2.28 343.513 3.34666 344.42 4.76C345.327 6.17333 345.78 7.92 345.78 10C345.78 12.0267 345.313 13.76 344.38 15.2C343.447 16.6133 342.193 17.68 340.62 18.4L347.42 30.28H340.46L333.1 17.12L337.1 19.48H330.02V30.28H323.82ZM330.02 14.08H335.26C336.14 14.08 336.9 13.9067 337.54 13.56C338.18 13.2133 338.673 12.7333 339.02 12.12C339.393 11.5067 339.58 10.8 339.58 10C339.58 9.17333 339.393 8.45333 339.02 7.84C338.673 7.22666 338.18 6.74666 337.54 6.4C336.9 6.05333 336.14 5.88 335.26 5.88H330.02V14.08ZM357.687 30.28V0.479996H369.087C371.141 0.479996 372.954 0.839996 374.527 1.56C376.127 2.28 377.381 3.34666 378.287 4.76C379.194 6.17333 379.647 7.92 379.647 10C379.647 12.0267 379.181 13.76 378.247 15.2C377.314 16.6133 376.061 17.68 374.487 18.4L381.287 30.28H374.327L366.967 17.12L370.967 19.48H363.887V30.28H357.687ZM363.887 14.08H369.127C370.007 14.08 370.767 13.9067 371.407 13.56C372.047 13.2133 372.541 12.7333 372.887 12.12C373.261 11.5067 373.447 10.8 373.447 10C373.447 9.17333 373.261 8.45333 372.887 7.84C372.541 7.22666 372.047 6.74666 371.407 6.4C370.767 6.05333 370.007 5.88 369.127 5.88H363.887V14.08ZM399.287 30.76C397.047 30.76 394.967 30.3733 393.047 29.6C391.127 28.8267 389.447 27.7467 388.007 26.36C386.594 24.9467 385.487 23.3067 384.687 21.44C383.887 19.5733 383.487 17.5467 383.487 15.36C383.487 13.1733 383.874 11.1467 384.647 9.28C385.447 7.41333 386.554 5.78666 387.967 4.4C389.407 3.01333 391.087 1.93333 393.007 1.16C394.927 0.386664 397.02 -2.38419e-06 399.287 -2.38419e-06C401.554 -2.38419e-06 403.647 0.386664 405.567 1.16C407.487 1.93333 409.154 3.01333 410.567 4.4C412.007 5.78666 413.114 7.41333 413.887 9.28C414.687 11.1467 415.087 13.1733 415.087 15.36C415.087 17.5467 414.687 19.5733 413.887 21.44C413.087 23.3067 411.967 24.9467 410.527 26.36C409.114 27.7467 407.447 28.8267 405.527 29.6C403.607 30.3733 401.527 30.76 399.287 30.76ZM399.287 25.16C400.647 25.16 401.9 24.92 403.047 24.44C404.22 23.96 405.247 23.2933 406.127 22.44C407.007 21.56 407.687 20.52 408.167 19.32C408.647 18.12 408.887 16.8 408.887 15.36C408.887 13.92 408.647 12.6133 408.167 11.44C407.687 10.24 407.007 9.2 406.127 8.32C405.247 7.44 404.22 6.77333 403.047 6.32C401.9 5.84 400.647 5.6 399.287 5.6C397.927 5.6 396.66 5.84 395.487 6.32C394.34 6.77333 393.327 7.44 392.447 8.32C391.567 9.2 390.887 10.24 390.407 11.44C389.927 12.6133 389.687 13.92 389.687 15.36C389.687 16.8 389.927 18.12 390.407 19.32C390.887 20.52 391.567 21.56 392.447 22.44C393.327 23.2933 394.34 23.96 395.487 24.44C396.66 24.92 397.927 25.16 399.287 25.16ZM416.073 30.28L426.153 0.479996H434.393L444.473 30.28H437.713L435.713 24.2H424.793L422.793 30.28H416.073ZM426.513 18.8H433.993L429.433 4.72H431.113L426.513 18.8ZM447.57 30.28V0.479996H457.29C460.517 0.479996 463.317 1.12 465.69 2.4C468.063 3.68 469.903 5.44 471.21 7.68C472.517 9.92 473.17 12.48 473.17 15.36C473.17 18.24 472.517 20.8133 471.21 23.08C469.903 25.32 468.063 27.08 465.69 28.36C463.317 29.64 460.517 30.28 457.29 30.28H447.57ZM453.77 24.88H457.45C459.397 24.88 461.077 24.4933 462.49 23.72C463.903 22.92 464.997 21.8133 465.77 20.4C466.57 18.96 466.97 17.28 466.97 15.36C466.97 13.4133 466.57 11.7333 465.77 10.32C464.997 8.90666 463.903 7.81333 462.49 7.04C461.077 6.26666 459.397 5.88 457.45 5.88H453.77V24.88ZM477.14 30.28V0.479996H483.14L494.3 15.28H491.5L502.34 0.479996H508.34V30.28H502.14V7.32L504.62 7.88L493.14 22.68H492.34L481.26 7.88L483.34 7.32V30.28H477.14ZM511.425 30.28L521.505 0.479996H529.745L539.825 30.28H533.065L531.065 24.2H520.145L518.145 30.28H511.425ZM521.865 18.8H529.345L524.785 4.72H526.465L521.865 18.8ZM542.922 30.28V0.479996H554.362C556.415 0.479996 558.228 0.839996 559.802 1.56C561.402 2.28 562.655 3.34666 563.562 4.76C564.468 6.17333 564.922 7.92 564.922 10C564.922 12.0267 564.455 13.7467 563.522 15.16C562.615 16.5733 561.362 17.6533 559.762 18.4C558.188 19.12 556.388 19.48 554.362 19.48H549.122V30.28H542.922ZM549.122 14.08H554.402C555.282 14.08 556.042 13.9067 556.682 13.56C557.322 13.2133 557.815 12.7333 558.162 12.12C558.535 11.5067 558.722 10.8 558.722 10C558.722 9.17333 558.535 8.45333 558.162 7.84C557.815 7.22666 557.322 6.74666 556.682 6.4C556.042 6.05333 555.282 5.88 554.402 5.88H549.122V14.08Z" fill="white"/>
</svg>
