<svg width="159" height="37" viewBox="0 0 159 37" fill="none" xmlns="http://www.w3.org/2000/svg">
<path d="M-1.07288e-06 36.336V0.575999H6.528V19.2L4.752 18.576L19.968 0.575999H28.176L13.92 17.472L14.304 12.864L28.608 36.336H20.928L11.328 20.592L6.528 26.304V36.336H-1.07288e-06ZM44.8774 36.912C42.6054 36.912 40.4934 36.496 38.5414 35.664C36.6214 34.832 34.9574 33.68 33.5494 32.208C32.1734 30.704 31.1654 28.96 30.5254 26.976L35.9494 24.624C36.8134 26.672 38.0614 28.288 39.6934 29.472C41.3254 30.624 43.1654 31.2 45.2134 31.2C46.3654 31.2 47.3574 31.024 48.1894 30.672C49.0534 30.288 49.7094 29.776 50.1574 29.136C50.6374 28.496 50.8774 27.728 50.8774 26.832C50.8774 25.776 50.5574 24.912 49.9174 24.24C49.3094 23.536 48.3814 22.992 47.1334 22.608L40.2694 20.4C37.4854 19.536 35.3894 18.24 33.9814 16.512C32.5734 14.784 31.8694 12.752 31.8694 10.416C31.8694 8.368 32.3654 6.56 33.3574 4.992C34.3814 3.424 35.7894 2.208 37.5814 1.344C39.4054 0.448001 41.4854 9.53674e-07 43.8214 9.53674e-07C45.9654 9.53674e-07 47.9334 0.384001 49.7254 1.152C51.5174 1.888 53.0534 2.928 54.3334 4.272C55.6454 5.584 56.6214 7.136 57.2614 8.928L51.8854 11.328C51.1814 9.536 50.1254 8.16 48.7174 7.2C47.3094 6.208 45.6774 5.712 43.8214 5.712C42.7334 5.712 41.7734 5.904 40.9414 6.288C40.1094 6.64 39.4534 7.152 38.9734 7.824C38.5254 8.464 38.3014 9.232 38.3014 10.128C38.3014 11.12 38.6214 12 39.2614 12.768C39.9014 13.504 40.8774 14.08 42.1894 14.496L48.7654 16.56C51.6134 17.488 53.7414 18.768 55.1494 20.4C56.5894 22.032 57.3094 24.048 57.3094 26.448C57.3094 28.496 56.7814 30.304 55.7254 31.872C54.6694 33.44 53.2134 34.672 51.3574 35.568C49.5014 36.464 47.3414 36.912 44.8774 36.912ZM59.8845 36.336L72.2205 0.575999H80.6685L93.0045 36.336H85.9005L83.3565 28.656H69.5325L66.9405 36.336H59.8845ZM71.4045 22.896H81.4845L75.5325 5.088H77.3565L71.4045 22.896ZM96.9844 36.336V0.575999H110.28C112.712 0.575999 114.856 1.024 116.712 1.92C118.6 2.784 120.072 4.064 121.128 5.76C122.184 7.424 122.712 9.456 122.712 11.856C122.712 14.32 122.12 16.416 120.936 18.144C119.784 19.872 118.216 21.152 116.232 21.984L124.44 36.336H117.048L108.264 20.64L112.488 23.136H103.512V36.336H96.9844ZM103.512 17.376H110.376C111.56 17.376 112.584 17.152 113.448 16.704C114.312 16.224 114.984 15.568 115.464 14.736C115.944 13.904 116.184 12.944 116.184 11.856C116.184 10.736 115.944 9.776 115.464 8.976C114.984 8.144 114.312 7.504 113.448 7.056C112.584 6.576 111.56 6.336 110.376 6.336H103.512V17.376ZM125.791 36.336L138.127 0.575999H146.575L158.911 36.336H151.807L149.263 28.656H135.439L132.847 36.336H125.791ZM137.311 22.896H147.391L141.439 5.088H143.263L137.311 22.896Z" fill="white"/>
</svg>
