<svg width="43" height="43" viewBox="0 0 43 43" fill="none" xmlns="http://www.w3.org/2000/svg">
<path fill-rule="evenodd" clip-rule="evenodd" d="M21.5002 5.37499C18.5316 5.37499 16.1252 7.78146 16.1252 10.75C16.1252 13.7185 18.5316 16.125 21.5002 16.125C24.4687 16.125 26.8752 13.7185 26.8752 10.75C26.8752 7.78146 24.4687 5.37499 21.5002 5.37499ZM12.5418 10.75C12.5418 5.80244 16.5526 1.79166 21.5002 1.79166C26.4477 1.79166 30.4585 5.80244 30.4585 10.75C30.4585 15.6975 26.4477 19.7083 21.5002 19.7083C16.5526 19.7083 12.5418 15.6975 12.5418 10.75ZM10.3532 25.3521C13.9284 23.7494 18.2465 23.2917 21.5002 23.2917C23.2119 23.2917 25.1844 23.4183 27.1764 23.7581C28.1519 23.9245 28.8077 24.8501 28.6413 25.8255C28.4749 26.8009 27.5493 27.4568 26.5739 27.2904C24.8131 26.99 23.0454 26.875 21.5002 26.875C18.483 26.875 14.7386 27.3131 11.819 28.6219C8.96377 29.9018 7.16683 31.8522 7.16683 34.9375V36.7292C7.16683 37.2345 7.58169 37.625 8.02985 37.625H23.2918C24.2813 37.625 25.0835 38.4271 25.0835 39.4167C25.0835 40.4062 24.2813 41.2083 23.2918 41.2083H8.02985C5.54572 41.2083 3.5835 39.1561 3.5835 36.7292V34.9375C3.5835 29.9603 6.71363 26.9836 10.3532 25.3521ZM34.0418 26.875C34.8959 26.875 35.6312 27.4778 35.7987 28.3153L36.3432 31.0376L39.0655 30.4931C39.8758 30.3311 40.6918 30.7442 41.0408 31.4932C41.3899 32.2422 41.1813 33.1328 40.5361 33.649L38.2112 35.509L39.3249 38.8501C39.5877 39.6384 39.2739 40.5039 38.5671 40.9407C37.8603 41.3776 36.9458 41.2711 36.3583 40.6836L34.0418 38.3671L31.7254 40.6836C31.1378 41.2711 30.2234 41.3776 29.5166 40.9407C28.8097 40.5039 28.496 39.6384 28.7588 38.8501L29.8725 35.509L27.5476 33.649C26.9023 33.1328 26.6938 32.2422 27.0428 31.4932C27.3919 30.7442 28.2079 30.3311 29.0182 30.4931L31.7405 31.0376L32.285 28.3153C32.4525 27.4778 33.1878 26.875 34.0418 26.875Z" fill="white"/>
</svg>
